%TF.GenerationSoftware,KiCad,Pcbnew,10.0.1*%
%TF.CreationDate,2026-07-03T21:03:26+05:30*%
%TF.ProjectId,instrumentation amplifier,696e7374-7275-46d6-956e-746174696f6e,rev?*%
%TF.SameCoordinates,Original*%
%TF.FileFunction,Plated,1,2,PTH,Drill*%
%TF.FilePolarity,Positive*%
%FSLAX46Y46*%
G04 Gerber Fmt 4.6, Leading zero omitted, Abs format (unit mm)*
G04 Created by KiCad (PCBNEW 10.0.1) date 2026-07-03 21:03:26*
%MOMM*%
%LPD*%
G01*
G04 APERTURE LIST*
%TA.AperFunction,ViaDrill*%
%ADD10C,0.300000*%
%TD*%
%TA.AperFunction,ComponentDrill*%
%ADD11C,0.800000*%
%TD*%
%TA.AperFunction,ComponentDrill*%
%ADD12C,1.000000*%
%TD*%
G04 APERTURE END LIST*
D10*
X140000000Y-85000000D03*
X140000000Y-85000000D03*
X165000000Y-107500000D03*
X165000000Y-107500000D03*
X165000000Y-107500000D03*
X165000000Y-107500000D03*
X165000000Y-107500000D03*
X165000000Y-107500000D03*
X175000000Y-92500000D03*
D11*
%TO.C,R1*%
X132500000Y-91500000D03*
X132500000Y-104200000D03*
%TO.C,U1*%
X136880000Y-69960000D03*
X136880000Y-72500000D03*
X136880000Y-85200000D03*
X136880000Y-87740000D03*
%TO.C,R7*%
X139650000Y-119500000D03*
%TO.C,U1*%
X144500000Y-69960000D03*
X144500000Y-72500000D03*
X144500000Y-85200000D03*
X144500000Y-87740000D03*
%TO.C,R2*%
X146500000Y-92000000D03*
X146500000Y-104700000D03*
%TO.C,R4*%
X151300000Y-76500000D03*
%TO.C,R7*%
X152350000Y-119500000D03*
%TO.C,U2*%
X154500000Y-96960000D03*
X154500000Y-99500000D03*
X154500000Y-112200000D03*
X154500000Y-114740000D03*
%TO.C,R3*%
X161650000Y-119500000D03*
%TO.C,U2*%
X162120000Y-96960000D03*
X162120000Y-99500000D03*
X162120000Y-112200000D03*
X162120000Y-114740000D03*
%TO.C,R4*%
X164000000Y-76500000D03*
%TO.C,R5*%
X169000000Y-98000000D03*
X169000000Y-110700000D03*
%TO.C,U3*%
X171000000Y-71260000D03*
X171000000Y-73800000D03*
X171000000Y-86500000D03*
X171000000Y-89040000D03*
%TO.C,R3*%
X174350000Y-119500000D03*
%TO.C,U3*%
X178620000Y-71260000D03*
X178620000Y-73800000D03*
X178620000Y-86500000D03*
X178620000Y-89040000D03*
%TO.C,R6*%
X180000000Y-97500000D03*
X180000000Y-110200000D03*
D12*
%TO.C,J3*%
X133000000Y-113000000D03*
X133000000Y-115540000D03*
X133000000Y-118080000D03*
%TO.C,J1*%
X139500000Y-105000000D03*
X139500000Y-107540000D03*
M02*
