%TF.GenerationSoftware,KiCad,Pcbnew,10.0.1*%
%TF.CreationDate,2026-07-03T21:02:55+05:30*%
%TF.ProjectId,instrumentation amplifier,696e7374-7275-46d6-956e-746174696f6e,rev?*%
%TF.SameCoordinates,Original*%
%TF.FileFunction,Soldermask,Top*%
%TF.FilePolarity,Negative*%
%FSLAX46Y46*%
G04 Gerber Fmt 4.6, Leading zero omitted, Abs format (unit mm)*
G04 Created by KiCad (PCBNEW 10.0.1) date 2026-07-03 21:02:55*
%MOMM*%
%LPD*%
G01*
G04 APERTURE LIST*
G04 Aperture macros list*
%AMRoundRect*
0 Rectangle with rounded corners*
0 $1 Rounding radius*
0 $2 $3 $4 $5 $6 $7 $8 $9 X,Y pos of 4 corners*
0 Add a 4 corners polygon primitive as box body*
4,1,4,$2,$3,$4,$5,$6,$7,$8,$9,$2,$3,0*
0 Add four circle primitives for the rounded corners*
1,1,$1+$1,$2,$3*
1,1,$1+$1,$4,$5*
1,1,$1+$1,$6,$7*
1,1,$1+$1,$8,$9*
0 Add four rect primitives between the rounded corners*
20,1,$1+$1,$2,$3,$4,$5,0*
20,1,$1+$1,$4,$5,$6,$7,0*
20,1,$1+$1,$6,$7,$8,$9,0*
20,1,$1+$1,$8,$9,$2,$3,0*%
G04 Aperture macros list end*
%ADD10RoundRect,0.250000X-0.550000X-0.550000X0.550000X-0.550000X0.550000X0.550000X-0.550000X0.550000X0*%
%ADD11C,1.600000*%
%ADD12R,1.700000X1.700000*%
%ADD13C,1.700000*%
%ADD14R,2.510000X1.000000*%
G04 APERTURE END LIST*
D10*
%TO.C,U3*%
X171000000Y-71260000D03*
D11*
X171000000Y-73800000D03*
X171000000Y-86500000D03*
X171000000Y-89040000D03*
X178620000Y-89040000D03*
X178620000Y-86500000D03*
X178620000Y-73800000D03*
X178620000Y-71260000D03*
%TD*%
D10*
%TO.C,U2*%
X154500000Y-96960000D03*
D11*
X154500000Y-99500000D03*
X154500000Y-112200000D03*
X154500000Y-114740000D03*
X162120000Y-114740000D03*
X162120000Y-112200000D03*
X162120000Y-99500000D03*
X162120000Y-96960000D03*
%TD*%
D10*
%TO.C,U1*%
X136880000Y-69960000D03*
D11*
X136880000Y-72500000D03*
X136880000Y-85200000D03*
X136880000Y-87740000D03*
X144500000Y-87740000D03*
X144500000Y-85200000D03*
X144500000Y-72500000D03*
X144500000Y-69960000D03*
%TD*%
%TO.C,R7*%
X139650000Y-119500000D03*
X152350000Y-119500000D03*
%TD*%
%TO.C,R6*%
X180000000Y-110200000D03*
X180000000Y-97500000D03*
%TD*%
%TO.C,R5*%
X169000000Y-110700000D03*
X169000000Y-98000000D03*
%TD*%
%TO.C,R4*%
X151300000Y-76500000D03*
X164000000Y-76500000D03*
%TD*%
%TO.C,R3*%
X161650000Y-119500000D03*
X174350000Y-119500000D03*
%TD*%
%TO.C,R2*%
X146500000Y-104700000D03*
X146500000Y-92000000D03*
%TD*%
%TO.C,R1*%
X132500000Y-91500000D03*
X132500000Y-104200000D03*
%TD*%
D12*
%TO.C,J3*%
X133000000Y-113000000D03*
D13*
X133000000Y-115540000D03*
X133000000Y-118080000D03*
%TD*%
D14*
%TO.C,J2*%
X156845000Y-84230000D03*
X160155000Y-86770000D03*
%TD*%
D12*
%TO.C,J1*%
X139500000Y-105000000D03*
D13*
X139500000Y-107540000D03*
%TD*%
M02*
