%TF.GenerationSoftware,KiCad,Pcbnew,10.0.1*%
%TF.CreationDate,2026-07-03T21:02:55+05:30*%
%TF.ProjectId,instrumentation amplifier,696e7374-7275-46d6-956e-746174696f6e,rev?*%
%TF.SameCoordinates,Original*%
%TF.FileFunction,Copper,L1,Top*%
%TF.FilePolarity,Positive*%
%FSLAX46Y46*%
G04 Gerber Fmt 4.6, Leading zero omitted, Abs format (unit mm)*
G04 Created by KiCad (PCBNEW 10.0.1) date 2026-07-03 21:02:55*
%MOMM*%
%LPD*%
G01*
G04 APERTURE LIST*
G04 Aperture macros list*
%AMRoundRect*
0 Rectangle with rounded corners*
0 $1 Rounding radius*
0 $2 $3 $4 $5 $6 $7 $8 $9 X,Y pos of 4 corners*
0 Add a 4 corners polygon primitive as box body*
4,1,4,$2,$3,$4,$5,$6,$7,$8,$9,$2,$3,0*
0 Add four circle primitives for the rounded corners*
1,1,$1+$1,$2,$3*
1,1,$1+$1,$4,$5*
1,1,$1+$1,$6,$7*
1,1,$1+$1,$8,$9*
0 Add four rect primitives between the rounded corners*
20,1,$1+$1,$2,$3,$4,$5,0*
20,1,$1+$1,$4,$5,$6,$7,0*
20,1,$1+$1,$6,$7,$8,$9,0*
20,1,$1+$1,$8,$9,$2,$3,0*%
G04 Aperture macros list end*
%TA.AperFunction,ComponentPad*%
%ADD10RoundRect,0.250000X-0.550000X-0.550000X0.550000X-0.550000X0.550000X0.550000X-0.550000X0.550000X0*%
%TD*%
%TA.AperFunction,ComponentPad*%
%ADD11C,1.600000*%
%TD*%
%TA.AperFunction,ComponentPad*%
%ADD12R,1.700000X1.700000*%
%TD*%
%TA.AperFunction,ComponentPad*%
%ADD13C,1.700000*%
%TD*%
%TA.AperFunction,SMDPad,CuDef*%
%ADD14R,2.510000X1.000000*%
%TD*%
%TA.AperFunction,ViaPad*%
%ADD15C,0.600000*%
%TD*%
%TA.AperFunction,Conductor*%
%ADD16C,0.500000*%
%TD*%
G04 APERTURE END LIST*
D10*
%TO.P,U3,1,NULL_1*%
%TO.N,unconnected-(U3-NULL-Pad1)*%
X171000000Y-71260000D03*
D11*
%TO.P,U3,2,-_2*%
%TO.N,/INVERT 3*%
X171000000Y-73800000D03*
%TO.P,U3,3,+_3*%
%TO.N,/NON INVERT 3*%
X171000000Y-86500000D03*
%TO.P,U3,4,V-_4*%
%TO.N,/-DIS*%
X171000000Y-89040000D03*
%TO.P,U3,5,NULL_5*%
%TO.N,unconnected-(U3-NULL-Pad5)*%
X178620000Y-89040000D03*
%TO.P,U3,6*%
%TO.N,/Vout*%
X178620000Y-86500000D03*
%TO.P,U3,7,V+_7*%
%TO.N,/DIS*%
X178620000Y-73800000D03*
%TO.P,U3,8,NC_8*%
%TO.N,unconnected-(U3-NC-Pad8)*%
X178620000Y-71260000D03*
%TD*%
D10*
%TO.P,U2,1,NULL_1*%
%TO.N,unconnected-(U2-NULL-Pad1)*%
X154500000Y-96960000D03*
D11*
%TO.P,U2,2,-_2*%
%TO.N,/INVERT 2*%
X154500000Y-99500000D03*
%TO.P,U2,3,+_3*%
%TO.N,/ NON INVERT 2*%
X154500000Y-112200000D03*
%TO.P,U2,4,V-_4*%
%TO.N,/-DIS*%
X154500000Y-114740000D03*
%TO.P,U2,5,NULL_5*%
%TO.N,unconnected-(U2-NULL-Pad5)*%
X162120000Y-114740000D03*
%TO.P,U2,6*%
%TO.N,/OUTPUT*%
X162120000Y-112200000D03*
%TO.P,U2,7,V+_7*%
%TO.N,/DIS*%
X162120000Y-99500000D03*
%TO.P,U2,8,NC_8*%
%TO.N,unconnected-(U2-NC-Pad8)*%
X162120000Y-96960000D03*
%TD*%
D10*
%TO.P,U1,1,NULL_1*%
%TO.N,unconnected-(U1-NULL-Pad1)*%
X136880000Y-69960000D03*
D11*
%TO.P,U1,2,-_2*%
%TO.N,/INVERT*%
X136880000Y-72500000D03*
%TO.P,U1,3,+_3*%
%TO.N,/NON INVERT 1*%
X136880000Y-85200000D03*
%TO.P,U1,4,V-_4*%
%TO.N,/-DIS*%
X136880000Y-87740000D03*
%TO.P,U1,5,NULL_5*%
%TO.N,unconnected-(U1-NULL-Pad5)*%
X144500000Y-87740000D03*
%TO.P,U1,6*%
%TO.N,/V0*%
X144500000Y-85200000D03*
%TO.P,U1,7,V+_7*%
%TO.N,/DIS*%
X144500000Y-72500000D03*
%TO.P,U1,8,NC_8*%
%TO.N,unconnected-(U1-NC-Pad8)*%
X144500000Y-69960000D03*
%TD*%
%TO.P,R7,1*%
%TO.N,/NON INVERT 3*%
X139650000Y-119500000D03*
%TO.P,R7,2*%
%TO.N,GND*%
X152350000Y-119500000D03*
%TD*%
%TO.P,R6,1*%
%TO.N,/Vout*%
X180000000Y-110200000D03*
%TO.P,R6,2*%
%TO.N,/INVERT 3*%
X180000000Y-97500000D03*
%TD*%
%TO.P,R5,1*%
%TO.N,/NON INVERT 3*%
X169000000Y-110700000D03*
%TO.P,R5,2*%
%TO.N,/OUTPUT*%
X169000000Y-98000000D03*
%TD*%
%TO.P,R4,1*%
%TO.N,/INVERT 3*%
X151300000Y-76500000D03*
%TO.P,R4,2*%
%TO.N,/V0*%
X164000000Y-76500000D03*
%TD*%
%TO.P,R3,1*%
%TO.N,/INVERT 2*%
X161650000Y-119500000D03*
%TO.P,R3,2*%
%TO.N,/OUTPUT*%
X174350000Y-119500000D03*
%TD*%
%TO.P,R2,1*%
%TO.N,/INVERT*%
X146500000Y-104700000D03*
%TO.P,R2,2*%
%TO.N,/INVERT 2*%
X146500000Y-92000000D03*
%TD*%
%TO.P,R1,1*%
%TO.N,/V0*%
X132500000Y-91500000D03*
%TO.P,R1,2*%
%TO.N,/INVERT*%
X132500000Y-104200000D03*
%TD*%
D12*
%TO.P,J3,1,Pin_1_1*%
%TO.N,/DIS*%
X133000000Y-113000000D03*
D13*
%TO.P,J3,2,Pin_2_2*%
%TO.N,GND*%
X133000000Y-115540000D03*
%TO.P,J3,3,Pin_3_3*%
%TO.N,/-DIS*%
X133000000Y-118080000D03*
%TD*%
D14*
%TO.P,J2,1,Pin_1_1*%
%TO.N,/NON INVERT 1*%
X156845000Y-84230000D03*
%TO.P,J2,2,Pin_2_2*%
%TO.N,GND*%
X160155000Y-86770000D03*
%TD*%
D12*
%TO.P,J1,1,Pin_1_1*%
%TO.N,/ NON INVERT 2*%
X139500000Y-105000000D03*
D13*
%TO.P,J1,2,Pin_2_2*%
%TO.N,GND*%
X139500000Y-107540000D03*
%TD*%
D15*
%TO.N,/NON INVERT 1*%
X140000000Y-85000000D03*
X140000000Y-85000000D03*
%TO.N,/NON INVERT 3*%
X175000000Y-92500000D03*
X165000000Y-107500000D03*
X165000000Y-107500000D03*
X165000000Y-107500000D03*
X165000000Y-107500000D03*
X165000000Y-107500000D03*
X165000000Y-107500000D03*
%TD*%
%TO.N,/NON INVERT 1*%
D16*
X150000000Y-77385000D02*
X156845000Y-84230000D01*
X150000000Y-76232233D02*
X150000000Y-77385000D01*
X145017767Y-71250000D02*
X150000000Y-76232233D01*
X140000000Y-75232233D02*
X143982233Y-71250000D01*
X140000000Y-85000000D02*
X140000000Y-75232233D01*
X143982233Y-71250000D02*
X145017767Y-71250000D01*
%TO.N,/NON INVERT 3*%
X171000000Y-79652233D02*
X171000000Y-86500000D01*
X178102233Y-72550000D02*
X171000000Y-79652233D01*
X179137767Y-72550000D02*
X178102233Y-72550000D01*
X179870000Y-73282233D02*
X179137767Y-72550000D01*
X179870000Y-82927717D02*
X179870000Y-73282233D01*
X174750000Y-88047717D02*
X179870000Y-82927717D01*
X174750000Y-90250000D02*
X174750000Y-88047717D01*
X175000000Y-90500000D02*
X174750000Y-90250000D01*
X175000000Y-92500000D02*
X175000000Y-90500000D01*
X165000000Y-97797717D02*
X170297716Y-92500000D01*
X170297716Y-92500000D02*
X175000000Y-92500000D01*
X165000000Y-107500000D02*
X165000000Y-97797717D01*
%TO.N,/OUTPUT*%
X169000000Y-108500000D02*
X169000000Y-98000000D01*
X167050000Y-110450000D02*
X169000000Y-108500000D01*
X167050000Y-112200000D02*
X167050000Y-110450000D01*
%TO.N,GND*%
X139500000Y-109040000D02*
X139500000Y-107540000D01*
X133000000Y-115540000D02*
X139500000Y-109040000D01*
%TO.N,/Vout*%
X181250000Y-108950000D02*
X180000000Y-110200000D01*
X181250000Y-89130000D02*
X181250000Y-108950000D01*
X178620000Y-86500000D02*
X181250000Y-89130000D01*
%TO.N,/INVERT*%
X135630000Y-101070000D02*
X132500000Y-104200000D01*
X136880000Y-72500000D02*
X135630000Y-73750000D01*
X135630000Y-73750000D02*
X135630000Y-101070000D01*
%TO.N,/INVERT 2*%
X161650000Y-116037767D02*
X161650000Y-119500000D01*
X154500000Y-108887767D02*
X161650000Y-116037767D01*
X154500000Y-99500000D02*
X154500000Y-108887767D01*
X154000000Y-99500000D02*
X154500000Y-99500000D01*
X146500000Y-92000000D02*
X154000000Y-99500000D01*
%TO.N,/INVERT*%
X145200001Y-103400001D02*
X146500000Y-104700000D01*
X133299999Y-103400001D02*
X145200001Y-103400001D01*
X132500000Y-104200000D02*
X133299999Y-103400001D01*
%TO.N,/ NON INVERT 2*%
X146700000Y-112200000D02*
X154500000Y-112200000D01*
X139500000Y-105000000D02*
X146700000Y-112200000D01*
%TO.N,GND*%
X151460000Y-119500000D02*
X152350000Y-119500000D01*
X139500000Y-107540000D02*
X151460000Y-119500000D01*
%TO.N,/OUTPUT*%
X167050000Y-112200000D02*
X174350000Y-119500000D01*
X162120000Y-112200000D02*
X167050000Y-112200000D01*
%TO.N,/DIS*%
X178620000Y-77500000D02*
X178620000Y-73800000D01*
X162307767Y-99500000D02*
X178620000Y-83187767D01*
X178620000Y-83187767D02*
X178620000Y-77500000D01*
X162120000Y-99500000D02*
X162307767Y-99500000D01*
X144500000Y-81880000D02*
X162120000Y-99500000D01*
X144500000Y-72500000D02*
X144500000Y-81880000D01*
%TO.N,/INVERT 3*%
X157500000Y-73800000D02*
X158300000Y-73800000D01*
X157500000Y-73800000D02*
X171000000Y-73800000D01*
X154000000Y-73800000D02*
X157500000Y-73800000D01*
X151300000Y-76500000D02*
X154000000Y-73800000D01*
%TD*%
%TA.AperFunction,Conductor*%
%TO.N,GND*%
G36*
X184942539Y-65020185D02*
G01*
X184988294Y-65072989D01*
X184999500Y-65124500D01*
X184999500Y-122375500D01*
X184979815Y-122442539D01*
X184927011Y-122488294D01*
X184875500Y-122499500D01*
X130124500Y-122499500D01*
X130057461Y-122479815D01*
X130011706Y-122427011D01*
X130000500Y-122375500D01*
X130000500Y-112102135D01*
X131649500Y-112102135D01*
X131649500Y-113897870D01*
X131649501Y-113897876D01*
X131655908Y-113957483D01*
X131706202Y-114092328D01*
X131706206Y-114092335D01*
X131792452Y-114207544D01*
X131792455Y-114207547D01*
X131907664Y-114293793D01*
X131907671Y-114293797D01*
X131952618Y-114310561D01*
X132042517Y-114344091D01*
X132102127Y-114350500D01*
X132112685Y-114350499D01*
X132179723Y-114370179D01*
X132200372Y-114386818D01*
X132870591Y-115057037D01*
X132807007Y-115074075D01*
X132692993Y-115139901D01*
X132599901Y-115232993D01*
X132534075Y-115347007D01*
X132517037Y-115410591D01*
X131884728Y-114778282D01*
X131884727Y-114778282D01*
X131845380Y-114832439D01*
X131748904Y-115021782D01*
X131683242Y-115223869D01*
X131683242Y-115223872D01*
X131650000Y-115433753D01*
X131650000Y-115646246D01*
X131683242Y-115856127D01*
X131683242Y-115856130D01*
X131748904Y-116058217D01*
X131845375Y-116247550D01*
X131884728Y-116301716D01*
X132517037Y-115669408D01*
X132534075Y-115732993D01*
X132599901Y-115847007D01*
X132692993Y-115940099D01*
X132807007Y-116005925D01*
X132870590Y-116022962D01*
X132238282Y-116655269D01*
X132238282Y-116655270D01*
X132292452Y-116694626D01*
X132292451Y-116694626D01*
X132301495Y-116699234D01*
X132352292Y-116747208D01*
X132369087Y-116815029D01*
X132346550Y-116881164D01*
X132301499Y-116920202D01*
X132292182Y-116924949D01*
X132120213Y-117049890D01*
X131969890Y-117200213D01*
X131844951Y-117372179D01*
X131748444Y-117561585D01*
X131682753Y-117763760D01*
X131649500Y-117973713D01*
X131649500Y-118186286D01*
X131681471Y-118388147D01*
X131682754Y-118396243D01*
X131719077Y-118508034D01*
X131748444Y-118598414D01*
X131844951Y-118787820D01*
X131969890Y-118959786D01*
X132120213Y-119110109D01*
X132292179Y-119235048D01*
X132292181Y-119235049D01*
X132292184Y-119235051D01*
X132481588Y-119331557D01*
X132683757Y-119397246D01*
X132893713Y-119430500D01*
X132893714Y-119430500D01*
X133106286Y-119430500D01*
X133106287Y-119430500D01*
X133313705Y-119397648D01*
X138349500Y-119397648D01*
X138349500Y-119602351D01*
X138381522Y-119804534D01*
X138444781Y-119999223D01*
X138508691Y-120124653D01*
X138537585Y-120181359D01*
X138537715Y-120181613D01*
X138658028Y-120347213D01*
X138802786Y-120491971D01*
X138923226Y-120579474D01*
X138968390Y-120612287D01*
X139084607Y-120671503D01*
X139150776Y-120705218D01*
X139150778Y-120705218D01*
X139150781Y-120705220D01*
X139255137Y-120739127D01*
X139345465Y-120768477D01*
X139446557Y-120784488D01*
X139547648Y-120800500D01*
X139547649Y-120800500D01*
X139752351Y-120800500D01*
X139752352Y-120800500D01*
X139954534Y-120768477D01*
X140149219Y-120705220D01*
X140331610Y-120612287D01*
X140424590Y-120544732D01*
X140497213Y-120491971D01*
X140497215Y-120491968D01*
X140497219Y-120491966D01*
X140641966Y-120347219D01*
X140641968Y-120347215D01*
X140641971Y-120347213D01*
X140694732Y-120274590D01*
X140762287Y-120181610D01*
X140855220Y-119999219D01*
X140918477Y-119804534D01*
X140950500Y-119602352D01*
X140950500Y-119397682D01*
X151050000Y-119397682D01*
X151050000Y-119602317D01*
X151082009Y-119804417D01*
X151145244Y-119999031D01*
X151238141Y-120181350D01*
X151238147Y-120181359D01*
X151270523Y-120225921D01*
X151270524Y-120225922D01*
X151950000Y-119546446D01*
X151950000Y-119552661D01*
X151977259Y-119654394D01*
X152029920Y-119745606D01*
X152104394Y-119820080D01*
X152195606Y-119872741D01*
X152297339Y-119900000D01*
X152303553Y-119900000D01*
X151624076Y-120579474D01*
X151668650Y-120611859D01*
X151850968Y-120704755D01*
X152045582Y-120767990D01*
X152247683Y-120800000D01*
X152452317Y-120800000D01*
X152654417Y-120767990D01*
X152849031Y-120704755D01*
X153031349Y-120611859D01*
X153075921Y-120579474D01*
X152396447Y-119900000D01*
X152402661Y-119900000D01*
X152504394Y-119872741D01*
X152595606Y-119820080D01*
X152670080Y-119745606D01*
X152722741Y-119654394D01*
X152750000Y-119552661D01*
X152750000Y-119546448D01*
X153429474Y-120225922D01*
X153429474Y-120225921D01*
X153461859Y-120181349D01*
X153554755Y-119999031D01*
X153617990Y-119804417D01*
X153650000Y-119602317D01*
X153650000Y-119397682D01*
X153617990Y-119195582D01*
X153554755Y-119000968D01*
X153461859Y-118818650D01*
X153429474Y-118774077D01*
X153429474Y-118774076D01*
X152750000Y-119453551D01*
X152750000Y-119447339D01*
X152722741Y-119345606D01*
X152670080Y-119254394D01*
X152595606Y-119179920D01*
X152504394Y-119127259D01*
X152402661Y-119100000D01*
X152396446Y-119100000D01*
X153075922Y-118420524D01*
X153075921Y-118420523D01*
X153031359Y-118388147D01*
X153031350Y-118388141D01*
X152849031Y-118295244D01*
X152654417Y-118232009D01*
X152452317Y-118200000D01*
X152247683Y-118200000D01*
X152045582Y-118232009D01*
X151850968Y-118295244D01*
X151668644Y-118388143D01*
X151624077Y-118420523D01*
X151624077Y-118420524D01*
X152303554Y-119100000D01*
X152297339Y-119100000D01*
X152195606Y-119127259D01*
X152104394Y-119179920D01*
X152029920Y-119254394D01*
X151977259Y-119345606D01*
X151950000Y-119447339D01*
X151950000Y-119453553D01*
X151270524Y-118774077D01*
X151270523Y-118774077D01*
X151238143Y-118818644D01*
X151145244Y-119000968D01*
X151082009Y-119195582D01*
X151050000Y-119397682D01*
X140950500Y-119397682D01*
X140950500Y-119397648D01*
X140931798Y-119279570D01*
X140918477Y-119195465D01*
X140887458Y-119100000D01*
X140855220Y-119000781D01*
X140855218Y-119000778D01*
X140855218Y-119000776D01*
X140762419Y-118818650D01*
X140762287Y-118818390D01*
X140730092Y-118774077D01*
X140641971Y-118652786D01*
X140497213Y-118508028D01*
X140331613Y-118387715D01*
X140331612Y-118387714D01*
X140331610Y-118387713D01*
X140274653Y-118358691D01*
X140149223Y-118294781D01*
X139954534Y-118231522D01*
X139779995Y-118203878D01*
X139752352Y-118199500D01*
X139547648Y-118199500D01*
X139523329Y-118203351D01*
X139345465Y-118231522D01*
X139150776Y-118294781D01*
X138968386Y-118387715D01*
X138802786Y-118508028D01*
X138658028Y-118652786D01*
X138537715Y-118818386D01*
X138444781Y-119000776D01*
X138381522Y-119195465D01*
X138349500Y-119397648D01*
X133313705Y-119397648D01*
X133316243Y-119397246D01*
X133518412Y-119331557D01*
X133707816Y-119235051D01*
X133762141Y-119195582D01*
X133879786Y-119110109D01*
X133879788Y-119110106D01*
X133879792Y-119110104D01*
X134030104Y-118959792D01*
X134030106Y-118959788D01*
X134030109Y-118959786D01*
X134155048Y-118787820D01*
X134155047Y-118787820D01*
X134155051Y-118787816D01*
X134251557Y-118598412D01*
X134317246Y-118396243D01*
X134350500Y-118186287D01*
X134350500Y-117973713D01*
X134317246Y-117763757D01*
X134251557Y-117561588D01*
X134155051Y-117372184D01*
X134155049Y-117372181D01*
X134155048Y-117372179D01*
X134030109Y-117200213D01*
X133879786Y-117049890D01*
X133707817Y-116924949D01*
X133698504Y-116920204D01*
X133647707Y-116872230D01*
X133630912Y-116804409D01*
X133653449Y-116738274D01*
X133698507Y-116699232D01*
X133707555Y-116694622D01*
X133761716Y-116655270D01*
X133761717Y-116655270D01*
X133129408Y-116022962D01*
X133192993Y-116005925D01*
X133307007Y-115940099D01*
X133400099Y-115847007D01*
X133465925Y-115732993D01*
X133482962Y-115669408D01*
X134115270Y-116301717D01*
X134115270Y-116301716D01*
X134154622Y-116247554D01*
X134251095Y-116058217D01*
X134316757Y-115856130D01*
X134316757Y-115856127D01*
X134350000Y-115646246D01*
X134350000Y-115433753D01*
X134316757Y-115223872D01*
X134316757Y-115223869D01*
X134251095Y-115021782D01*
X134154624Y-114832449D01*
X134115270Y-114778282D01*
X134115269Y-114778282D01*
X133482962Y-115410590D01*
X133465925Y-115347007D01*
X133400099Y-115232993D01*
X133307007Y-115139901D01*
X133192993Y-115074075D01*
X133129409Y-115057037D01*
X133799627Y-114386818D01*
X133860950Y-114353333D01*
X133887307Y-114350499D01*
X133897872Y-114350499D01*
X133957483Y-114344091D01*
X134092331Y-114293796D01*
X134207546Y-114207546D01*
X134293796Y-114092331D01*
X134344091Y-113957483D01*
X134350500Y-113897873D01*
X134350499Y-112102128D01*
X134344091Y-112042517D01*
X134300428Y-111925451D01*
X134293797Y-111907671D01*
X134293793Y-111907664D01*
X134207547Y-111792455D01*
X134207544Y-111792452D01*
X134092335Y-111706206D01*
X134092328Y-111706202D01*
X133957482Y-111655908D01*
X133957483Y-111655908D01*
X133897883Y-111649501D01*
X133897881Y-111649500D01*
X133897873Y-111649500D01*
X133897864Y-111649500D01*
X132102129Y-111649500D01*
X132102123Y-111649501D01*
X132042516Y-111655908D01*
X131907671Y-111706202D01*
X131907664Y-111706206D01*
X131792455Y-111792452D01*
X131792452Y-111792455D01*
X131706206Y-111907664D01*
X131706202Y-111907671D01*
X131655908Y-112042517D01*
X131649501Y-112102116D01*
X131649501Y-112102123D01*
X131649500Y-112102135D01*
X130000500Y-112102135D01*
X130000500Y-104097648D01*
X131199500Y-104097648D01*
X131199500Y-104302351D01*
X131231522Y-104504534D01*
X131294781Y-104699223D01*
X131387715Y-104881613D01*
X131508028Y-105047213D01*
X131652786Y-105191971D01*
X131786518Y-105289131D01*
X131818390Y-105312287D01*
X131934607Y-105371503D01*
X132000776Y-105405218D01*
X132000778Y-105405218D01*
X132000781Y-105405220D01*
X132105137Y-105439127D01*
X132195465Y-105468477D01*
X132296557Y-105484488D01*
X132397648Y-105500500D01*
X132397649Y-105500500D01*
X132602351Y-105500500D01*
X132602352Y-105500500D01*
X132804534Y-105468477D01*
X132999219Y-105405220D01*
X133181610Y-105312287D01*
X133337231Y-105199223D01*
X133347213Y-105191971D01*
X133347215Y-105191968D01*
X133347219Y-105191966D01*
X133491966Y-105047219D01*
X133491968Y-105047215D01*
X133491971Y-105047213D01*
X133544732Y-104974590D01*
X133612287Y-104881610D01*
X133705220Y-104699219D01*
X133768477Y-104504534D01*
X133800500Y-104302352D01*
X133800500Y-104274501D01*
X133820185Y-104207462D01*
X133872989Y-104161707D01*
X133924500Y-104150501D01*
X138025500Y-104150501D01*
X138092539Y-104170186D01*
X138138294Y-104222990D01*
X138149500Y-104274501D01*
X138149500Y-105897870D01*
X138149501Y-105897876D01*
X138155908Y-105957483D01*
X138206202Y-106092328D01*
X138206206Y-106092335D01*
X138292452Y-106207544D01*
X138292455Y-106207547D01*
X138407664Y-106293793D01*
X138407671Y-106293797D01*
X138452618Y-106310561D01*
X138542517Y-106344091D01*
X138602127Y-106350500D01*
X138612685Y-106350499D01*
X138679723Y-106370179D01*
X138700372Y-106386818D01*
X139370591Y-107057037D01*
X139307007Y-107074075D01*
X139192993Y-107139901D01*
X139099901Y-107232993D01*
X139034075Y-107347007D01*
X139017037Y-107410591D01*
X138384728Y-106778282D01*
X138384727Y-106778282D01*
X138345380Y-106832439D01*
X138248904Y-107021782D01*
X138183242Y-107223869D01*
X138183242Y-107223872D01*
X138150000Y-107433753D01*
X138150000Y-107646246D01*
X138183242Y-107856127D01*
X138183242Y-107856130D01*
X138248904Y-108058217D01*
X138345375Y-108247550D01*
X138384728Y-108301716D01*
X139017037Y-107669408D01*
X139034075Y-107732993D01*
X139099901Y-107847007D01*
X139192993Y-107940099D01*
X139307007Y-108005925D01*
X139370590Y-108022962D01*
X138738282Y-108655269D01*
X138738282Y-108655270D01*
X138792449Y-108694624D01*
X138981782Y-108791095D01*
X139183870Y-108856757D01*
X139393754Y-108890000D01*
X139606246Y-108890000D01*
X139816127Y-108856757D01*
X139816130Y-108856757D01*
X140018217Y-108791095D01*
X140207554Y-108694622D01*
X140261716Y-108655270D01*
X140261717Y-108655270D01*
X139629408Y-108022962D01*
X139692993Y-108005925D01*
X139807007Y-107940099D01*
X139900099Y-107847007D01*
X139965925Y-107732993D01*
X139982962Y-107669408D01*
X140615270Y-108301717D01*
X140615270Y-108301716D01*
X140654622Y-108247554D01*
X140751095Y-108058217D01*
X140816757Y-107856130D01*
X140816757Y-107856127D01*
X140844044Y-107683849D01*
X140873973Y-107620714D01*
X140933285Y-107583783D01*
X141003147Y-107584781D01*
X141054198Y-107615566D01*
X143639409Y-110200776D01*
X146117049Y-112678416D01*
X146221584Y-112782951D01*
X146221587Y-112782953D01*
X146221588Y-112782954D01*
X146344503Y-112865083D01*
X146344506Y-112865085D01*
X146394665Y-112885861D01*
X146401080Y-112888518D01*
X146481088Y-112921659D01*
X146597241Y-112944763D01*
X146620380Y-112949365D01*
X146626081Y-112950500D01*
X146626082Y-112950500D01*
X146626083Y-112950500D01*
X146773918Y-112950500D01*
X153374582Y-112950500D01*
X153441621Y-112970185D01*
X153474900Y-113001615D01*
X153508028Y-113047212D01*
X153508032Y-113047217D01*
X153652786Y-113191971D01*
X153807749Y-113304556D01*
X153818390Y-113312287D01*
X153909840Y-113358883D01*
X153911080Y-113359515D01*
X153961876Y-113407490D01*
X153978671Y-113475311D01*
X153956134Y-113541446D01*
X153911080Y-113580485D01*
X153818386Y-113627715D01*
X153652786Y-113748028D01*
X153508028Y-113892786D01*
X153387715Y-114058386D01*
X153294781Y-114240776D01*
X153231522Y-114435465D01*
X153199500Y-114637648D01*
X153199500Y-114842351D01*
X153231522Y-115044534D01*
X153294781Y-115239223D01*
X153387715Y-115421613D01*
X153508028Y-115587213D01*
X153652786Y-115731971D01*
X153807749Y-115844556D01*
X153818390Y-115852287D01*
X153899381Y-115893554D01*
X154000776Y-115945218D01*
X154000778Y-115945218D01*
X154000781Y-115945220D01*
X154105137Y-115979127D01*
X154195465Y-116008477D01*
X154296557Y-116024488D01*
X154397648Y-116040500D01*
X154397649Y-116040500D01*
X154602351Y-116040500D01*
X154602352Y-116040500D01*
X154804534Y-116008477D01*
X154999219Y-115945220D01*
X155181610Y-115852287D01*
X155274590Y-115784732D01*
X155347213Y-115731971D01*
X155347215Y-115731968D01*
X155347219Y-115731966D01*
X155491966Y-115587219D01*
X155491968Y-115587215D01*
X155491971Y-115587213D01*
X155574097Y-115474174D01*
X155612287Y-115421610D01*
X155705220Y-115239219D01*
X155768477Y-115044534D01*
X155800500Y-114842352D01*
X155800500Y-114637648D01*
X155768477Y-114435466D01*
X155705220Y-114240781D01*
X155705218Y-114240778D01*
X155705218Y-114240776D01*
X155662310Y-114156566D01*
X155612287Y-114058390D01*
X155604556Y-114047749D01*
X155491971Y-113892786D01*
X155347213Y-113748028D01*
X155181614Y-113627715D01*
X155175006Y-113624348D01*
X155088917Y-113580483D01*
X155038123Y-113532511D01*
X155021328Y-113464690D01*
X155043865Y-113398555D01*
X155088917Y-113359516D01*
X155181610Y-113312287D01*
X155202770Y-113296913D01*
X155347213Y-113191971D01*
X155347215Y-113191968D01*
X155347219Y-113191966D01*
X155491966Y-113047219D01*
X155491968Y-113047215D01*
X155491971Y-113047213D01*
X155566404Y-112944763D01*
X155612287Y-112881610D01*
X155705220Y-112699219D01*
X155768477Y-112504534D01*
X155800500Y-112302352D01*
X155800500Y-112097648D01*
X155768477Y-111895466D01*
X155749730Y-111837770D01*
X155735006Y-111792452D01*
X155705220Y-111700781D01*
X155705218Y-111700778D01*
X155705218Y-111700776D01*
X155671503Y-111634607D01*
X155612287Y-111518390D01*
X155599289Y-111500500D01*
X155491971Y-111352786D01*
X155347213Y-111208028D01*
X155181613Y-111087715D01*
X155181612Y-111087714D01*
X155181610Y-111087713D01*
X155124653Y-111058691D01*
X154999223Y-110994781D01*
X154804534Y-110931522D01*
X154629995Y-110903878D01*
X154602352Y-110899500D01*
X154397648Y-110899500D01*
X154373329Y-110903351D01*
X154195465Y-110931522D01*
X154000776Y-110994781D01*
X153818386Y-111087715D01*
X153652786Y-111208028D01*
X153508032Y-111352782D01*
X153508028Y-111352787D01*
X153474900Y-111398385D01*
X153419571Y-111441051D01*
X153374582Y-111449500D01*
X147062229Y-111449500D01*
X146995190Y-111429815D01*
X146974548Y-111413181D01*
X140886818Y-105325450D01*
X140853333Y-105264127D01*
X140850499Y-105237769D01*
X140850499Y-104274501D01*
X140870184Y-104207462D01*
X140922988Y-104161707D01*
X140974499Y-104150501D01*
X144837771Y-104150501D01*
X144904810Y-104170186D01*
X144925452Y-104186820D01*
X145173526Y-104434893D01*
X145207011Y-104496216D01*
X145208318Y-104541971D01*
X145199500Y-104597647D01*
X145199500Y-104802351D01*
X145231522Y-105004534D01*
X145294781Y-105199223D01*
X145387715Y-105381613D01*
X145508028Y-105547213D01*
X145652786Y-105691971D01*
X145807749Y-105804556D01*
X145818390Y-105812287D01*
X145934607Y-105871503D01*
X146000776Y-105905218D01*
X146000778Y-105905218D01*
X146000781Y-105905220D01*
X146105137Y-105939127D01*
X146195465Y-105968477D01*
X146296557Y-105984488D01*
X146397648Y-106000500D01*
X146397649Y-106000500D01*
X146602351Y-106000500D01*
X146602352Y-106000500D01*
X146804534Y-105968477D01*
X146999219Y-105905220D01*
X147181610Y-105812287D01*
X147274590Y-105744732D01*
X147347213Y-105691971D01*
X147347215Y-105691968D01*
X147347219Y-105691966D01*
X147491966Y-105547219D01*
X147491968Y-105547215D01*
X147491971Y-105547213D01*
X147595133Y-105405220D01*
X147612287Y-105381610D01*
X147705220Y-105199219D01*
X147768477Y-105004534D01*
X147800500Y-104802352D01*
X147800500Y-104597648D01*
X147800500Y-104597647D01*
X147768477Y-104395465D01*
X147712436Y-104222990D01*
X147705220Y-104200781D01*
X147705218Y-104200778D01*
X147705218Y-104200776D01*
X147652671Y-104097648D01*
X147612287Y-104018390D01*
X147604556Y-104007749D01*
X147491971Y-103852786D01*
X147347213Y-103708028D01*
X147181613Y-103587715D01*
X147181612Y-103587714D01*
X147181610Y-103587713D01*
X147124653Y-103558691D01*
X146999223Y-103494781D01*
X146804534Y-103431522D01*
X146629995Y-103403878D01*
X146602352Y-103399500D01*
X146397648Y-103399500D01*
X146341971Y-103408318D01*
X146272678Y-103399363D01*
X146234893Y-103373526D01*
X145678422Y-102817053D01*
X145678415Y-102817047D01*
X145604730Y-102767813D01*
X145604730Y-102767814D01*
X145555492Y-102734914D01*
X145418918Y-102678344D01*
X145418908Y-102678341D01*
X145273921Y-102649501D01*
X145273919Y-102649501D01*
X135411228Y-102649501D01*
X135344189Y-102629816D01*
X135298434Y-102577012D01*
X135288490Y-102507854D01*
X135317515Y-102444298D01*
X135323547Y-102437820D01*
X136212948Y-101548419D01*
X136212951Y-101548416D01*
X136295084Y-101425495D01*
X136351658Y-101288913D01*
X136380500Y-101143918D01*
X136380500Y-91897648D01*
X145199500Y-91897648D01*
X145199500Y-92102351D01*
X145231522Y-92304534D01*
X145294781Y-92499223D01*
X145387715Y-92681613D01*
X145508028Y-92847213D01*
X145652786Y-92991971D01*
X145807749Y-93104556D01*
X145818390Y-93112287D01*
X145934607Y-93171503D01*
X146000776Y-93205218D01*
X146000778Y-93205218D01*
X146000781Y-93205220D01*
X146105137Y-93239127D01*
X146195465Y-93268477D01*
X146279564Y-93281797D01*
X146397648Y-93300500D01*
X146397649Y-93300500D01*
X146602350Y-93300500D01*
X146602352Y-93300500D01*
X146658026Y-93291681D01*
X146727318Y-93300635D01*
X146765105Y-93326473D01*
X153204868Y-99766236D01*
X153235118Y-99815599D01*
X153294781Y-99999221D01*
X153387715Y-100181613D01*
X153508028Y-100347213D01*
X153508034Y-100347219D01*
X153652781Y-100491966D01*
X153698384Y-100525098D01*
X153741050Y-100580425D01*
X153749500Y-100625416D01*
X153749500Y-108961685D01*
X153749500Y-108961687D01*
X153749499Y-108961687D01*
X153778340Y-109106674D01*
X153778343Y-109106684D01*
X153834914Y-109243259D01*
X153867812Y-109292494D01*
X153867813Y-109292497D01*
X153917046Y-109366181D01*
X153917052Y-109366188D01*
X160863181Y-116312316D01*
X160896666Y-116373639D01*
X160899500Y-116399997D01*
X160899500Y-118374582D01*
X160879815Y-118441621D01*
X160848385Y-118474900D01*
X160802787Y-118508028D01*
X160802782Y-118508032D01*
X160658028Y-118652786D01*
X160537715Y-118818386D01*
X160444781Y-119000776D01*
X160381522Y-119195465D01*
X160349500Y-119397648D01*
X160349500Y-119602351D01*
X160381522Y-119804534D01*
X160444781Y-119999223D01*
X160508691Y-120124653D01*
X160537585Y-120181359D01*
X160537715Y-120181613D01*
X160658028Y-120347213D01*
X160802786Y-120491971D01*
X160923226Y-120579474D01*
X160968390Y-120612287D01*
X161084607Y-120671503D01*
X161150776Y-120705218D01*
X161150778Y-120705218D01*
X161150781Y-120705220D01*
X161255137Y-120739127D01*
X161345465Y-120768477D01*
X161446557Y-120784488D01*
X161547648Y-120800500D01*
X161547649Y-120800500D01*
X161752351Y-120800500D01*
X161752352Y-120800500D01*
X161954534Y-120768477D01*
X162149219Y-120705220D01*
X162331610Y-120612287D01*
X162424590Y-120544732D01*
X162497213Y-120491971D01*
X162497215Y-120491968D01*
X162497219Y-120491966D01*
X162641966Y-120347219D01*
X162641968Y-120347215D01*
X162641971Y-120347213D01*
X162694732Y-120274590D01*
X162762287Y-120181610D01*
X162855220Y-119999219D01*
X162918477Y-119804534D01*
X162950500Y-119602352D01*
X162950500Y-119397648D01*
X162931798Y-119279570D01*
X162918477Y-119195465D01*
X162887458Y-119100000D01*
X162855220Y-119000781D01*
X162855218Y-119000778D01*
X162855218Y-119000776D01*
X162762419Y-118818650D01*
X162762287Y-118818390D01*
X162730092Y-118774077D01*
X162641971Y-118652786D01*
X162497217Y-118508032D01*
X162497212Y-118508028D01*
X162451615Y-118474900D01*
X162408949Y-118419571D01*
X162400500Y-118374582D01*
X162400500Y-116106377D01*
X162420185Y-116039338D01*
X162472989Y-115993583D01*
X162486176Y-115988448D01*
X162619219Y-115945220D01*
X162801610Y-115852287D01*
X162894590Y-115784732D01*
X162967213Y-115731971D01*
X162967215Y-115731968D01*
X162967219Y-115731966D01*
X163111966Y-115587219D01*
X163111968Y-115587215D01*
X163111971Y-115587213D01*
X163194097Y-115474174D01*
X163232287Y-115421610D01*
X163325220Y-115239219D01*
X163388477Y-115044534D01*
X163420500Y-114842352D01*
X163420500Y-114637648D01*
X163388477Y-114435466D01*
X163325220Y-114240781D01*
X163325218Y-114240778D01*
X163325218Y-114240776D01*
X163282310Y-114156566D01*
X163232287Y-114058390D01*
X163224556Y-114047749D01*
X163111971Y-113892786D01*
X162967213Y-113748028D01*
X162801614Y-113627715D01*
X162795006Y-113624348D01*
X162708917Y-113580483D01*
X162658123Y-113532511D01*
X162641328Y-113464690D01*
X162663865Y-113398555D01*
X162708917Y-113359516D01*
X162801610Y-113312287D01*
X162822770Y-113296913D01*
X162967213Y-113191971D01*
X162967215Y-113191968D01*
X162967219Y-113191966D01*
X163111966Y-113047219D01*
X163114650Y-113043524D01*
X163145100Y-113001615D01*
X163200429Y-112958949D01*
X163245418Y-112950500D01*
X166687770Y-112950500D01*
X166754809Y-112970185D01*
X166775451Y-112986819D01*
X173023526Y-119234894D01*
X173057011Y-119296217D01*
X173058318Y-119341972D01*
X173049500Y-119397647D01*
X173049500Y-119602351D01*
X173081522Y-119804534D01*
X173144781Y-119999223D01*
X173208691Y-120124653D01*
X173237585Y-120181359D01*
X173237715Y-120181613D01*
X173358028Y-120347213D01*
X173502786Y-120491971D01*
X173623226Y-120579474D01*
X173668390Y-120612287D01*
X173784607Y-120671503D01*
X173850776Y-120705218D01*
X173850778Y-120705218D01*
X173850781Y-120705220D01*
X173955137Y-120739127D01*
X174045465Y-120768477D01*
X174146557Y-120784488D01*
X174247648Y-120800500D01*
X174247649Y-120800500D01*
X174452351Y-120800500D01*
X174452352Y-120800500D01*
X174654534Y-120768477D01*
X174849219Y-120705220D01*
X175031610Y-120612287D01*
X175124590Y-120544732D01*
X175197213Y-120491971D01*
X175197215Y-120491968D01*
X175197219Y-120491966D01*
X175341966Y-120347219D01*
X175341968Y-120347215D01*
X175341971Y-120347213D01*
X175394732Y-120274590D01*
X175462287Y-120181610D01*
X175555220Y-119999219D01*
X175618477Y-119804534D01*
X175650500Y-119602352D01*
X175650500Y-119397648D01*
X175631798Y-119279570D01*
X175618477Y-119195465D01*
X175587458Y-119100000D01*
X175555220Y-119000781D01*
X175555218Y-119000778D01*
X175555218Y-119000776D01*
X175462419Y-118818650D01*
X175462287Y-118818390D01*
X175430092Y-118774077D01*
X175341971Y-118652786D01*
X175197213Y-118508028D01*
X175031613Y-118387715D01*
X175031612Y-118387714D01*
X175031610Y-118387713D01*
X174974653Y-118358691D01*
X174849223Y-118294781D01*
X174654534Y-118231522D01*
X174479995Y-118203878D01*
X174452352Y-118199500D01*
X174247648Y-118199500D01*
X174191972Y-118208318D01*
X174122679Y-118199363D01*
X174084894Y-118173526D01*
X167836819Y-111925451D01*
X167822115Y-111898523D01*
X167805523Y-111872705D01*
X167804631Y-111866504D01*
X167803334Y-111864128D01*
X167800500Y-111837770D01*
X167800500Y-111639047D01*
X167820185Y-111572008D01*
X167872989Y-111526253D01*
X167942147Y-111516309D01*
X168005703Y-111545334D01*
X168012181Y-111551366D01*
X168152786Y-111691971D01*
X168291089Y-111792452D01*
X168318390Y-111812287D01*
X168420134Y-111864128D01*
X168500776Y-111905218D01*
X168500778Y-111905218D01*
X168500781Y-111905220D01*
X168563046Y-111925451D01*
X168695465Y-111968477D01*
X168796557Y-111984488D01*
X168897648Y-112000500D01*
X168897649Y-112000500D01*
X169102351Y-112000500D01*
X169102352Y-112000500D01*
X169304534Y-111968477D01*
X169499219Y-111905220D01*
X169681610Y-111812287D01*
X169774590Y-111744732D01*
X169847213Y-111691971D01*
X169847215Y-111691968D01*
X169847219Y-111691966D01*
X169991966Y-111547219D01*
X169991968Y-111547215D01*
X169991971Y-111547213D01*
X170077264Y-111429815D01*
X170112287Y-111381610D01*
X170205220Y-111199219D01*
X170268477Y-111004534D01*
X170300500Y-110802352D01*
X170300500Y-110597648D01*
X170268477Y-110395466D01*
X170205220Y-110200781D01*
X170205218Y-110200778D01*
X170205218Y-110200776D01*
X170171503Y-110134607D01*
X170112287Y-110018390D01*
X170078279Y-109971581D01*
X169991971Y-109852786D01*
X169847213Y-109708028D01*
X169681613Y-109587715D01*
X169681612Y-109587714D01*
X169681610Y-109587713D01*
X169499219Y-109494780D01*
X169365127Y-109451211D01*
X169307454Y-109411775D01*
X169280255Y-109347416D01*
X169292170Y-109278570D01*
X169315762Y-109245603D01*
X169582951Y-108978416D01*
X169665084Y-108855495D01*
X169721658Y-108718913D01*
X169731615Y-108668855D01*
X169750500Y-108573918D01*
X169750500Y-99125416D01*
X169770185Y-99058377D01*
X169801613Y-99025099D01*
X169847219Y-98991966D01*
X169991966Y-98847219D01*
X169991968Y-98847215D01*
X169991971Y-98847213D01*
X170095133Y-98705220D01*
X170112287Y-98681610D01*
X170205220Y-98499219D01*
X170268477Y-98304534D01*
X170300500Y-98102352D01*
X170300500Y-97897648D01*
X170289680Y-97829334D01*
X170268477Y-97695465D01*
X170238222Y-97602351D01*
X170205220Y-97500781D01*
X170205218Y-97500778D01*
X170205218Y-97500776D01*
X170152671Y-97397648D01*
X170112287Y-97318390D01*
X170073159Y-97264534D01*
X169991971Y-97152786D01*
X169847213Y-97008028D01*
X169681613Y-96887715D01*
X169681612Y-96887714D01*
X169681610Y-96887713D01*
X169622604Y-96857648D01*
X169499223Y-96794781D01*
X169304534Y-96731522D01*
X169129995Y-96703878D01*
X169102352Y-96699500D01*
X168897648Y-96699500D01*
X168873329Y-96703351D01*
X168695465Y-96731522D01*
X168500776Y-96794781D01*
X168318386Y-96887715D01*
X168152786Y-97008028D01*
X168008028Y-97152786D01*
X167887715Y-97318386D01*
X167794781Y-97500776D01*
X167731522Y-97695465D01*
X167699500Y-97897648D01*
X167699500Y-98102351D01*
X167731522Y-98304534D01*
X167794781Y-98499223D01*
X167852391Y-98612287D01*
X167873026Y-98652786D01*
X167887715Y-98681613D01*
X168008028Y-98847213D01*
X168008034Y-98847219D01*
X168152781Y-98991966D01*
X168198384Y-99025098D01*
X168241050Y-99080425D01*
X168249500Y-99125416D01*
X168249500Y-108137770D01*
X168229815Y-108204809D01*
X168213181Y-108225451D01*
X166467050Y-109971581D01*
X166467047Y-109971584D01*
X166435773Y-110018389D01*
X166435774Y-110018390D01*
X166384913Y-110094508D01*
X166328343Y-110231082D01*
X166328340Y-110231092D01*
X166299500Y-110376079D01*
X166299500Y-111325500D01*
X166279815Y-111392539D01*
X166227011Y-111438294D01*
X166175500Y-111449500D01*
X163245418Y-111449500D01*
X163178379Y-111429815D01*
X163145100Y-111398385D01*
X163111971Y-111352787D01*
X163111967Y-111352782D01*
X162967213Y-111208028D01*
X162801613Y-111087715D01*
X162801612Y-111087714D01*
X162801610Y-111087713D01*
X162744653Y-111058691D01*
X162619223Y-110994781D01*
X162424534Y-110931522D01*
X162249995Y-110903878D01*
X162222352Y-110899500D01*
X162017648Y-110899500D01*
X161993329Y-110903351D01*
X161815465Y-110931522D01*
X161620776Y-110994781D01*
X161438386Y-111087715D01*
X161272786Y-111208028D01*
X161128028Y-111352786D01*
X161007715Y-111518386D01*
X160914781Y-111700776D01*
X160851522Y-111895465D01*
X160819500Y-112097648D01*
X160819500Y-112302351D01*
X160851522Y-112504534D01*
X160914781Y-112699223D01*
X161007715Y-112881613D01*
X161128028Y-113047213D01*
X161272786Y-113191971D01*
X161427749Y-113304556D01*
X161438390Y-113312287D01*
X161529840Y-113358883D01*
X161531080Y-113359515D01*
X161581876Y-113407490D01*
X161598671Y-113475311D01*
X161576134Y-113541446D01*
X161531080Y-113580485D01*
X161438386Y-113627715D01*
X161272786Y-113748028D01*
X161128028Y-113892786D01*
X161007713Y-114058388D01*
X160992126Y-114088978D01*
X160944150Y-114139773D01*
X160876329Y-114156566D01*
X160810195Y-114134027D01*
X160793962Y-114120361D01*
X155286819Y-108613218D01*
X155253334Y-108551895D01*
X155250500Y-108525537D01*
X155250500Y-100625416D01*
X155270185Y-100558377D01*
X155301613Y-100525099D01*
X155347219Y-100491966D01*
X155491966Y-100347219D01*
X155491968Y-100347215D01*
X155491971Y-100347213D01*
X155544732Y-100274590D01*
X155612287Y-100181610D01*
X155705220Y-99999219D01*
X155768477Y-99804534D01*
X155800500Y-99602352D01*
X155800500Y-99397648D01*
X155768477Y-99195466D01*
X155705220Y-99000781D01*
X155705218Y-99000778D01*
X155705218Y-99000776D01*
X155659041Y-98910150D01*
X155612287Y-98818390D01*
X155604556Y-98807749D01*
X155491971Y-98652786D01*
X155347219Y-98508034D01*
X155325103Y-98491966D01*
X155253547Y-98439978D01*
X155210882Y-98384649D01*
X155204903Y-98315036D01*
X155237508Y-98253240D01*
X155287426Y-98221955D01*
X155369334Y-98194814D01*
X155518656Y-98102712D01*
X155642712Y-97978656D01*
X155734814Y-97829334D01*
X155789999Y-97662797D01*
X155800500Y-97560009D01*
X155800499Y-96359992D01*
X155789999Y-96257203D01*
X155734814Y-96090666D01*
X155642712Y-95941344D01*
X155518656Y-95817288D01*
X155369334Y-95725186D01*
X155202797Y-95670001D01*
X155202795Y-95670000D01*
X155100010Y-95659500D01*
X153899998Y-95659500D01*
X153899981Y-95659501D01*
X153797203Y-95670000D01*
X153797200Y-95670001D01*
X153630668Y-95725185D01*
X153630663Y-95725187D01*
X153481342Y-95817289D01*
X153357289Y-95941342D01*
X153265187Y-96090663D01*
X153265186Y-96090666D01*
X153210001Y-96257203D01*
X153210001Y-96257204D01*
X153210000Y-96257204D01*
X153199500Y-96359983D01*
X153199500Y-97338770D01*
X153179815Y-97405809D01*
X153127011Y-97451564D01*
X153057853Y-97461508D01*
X152994297Y-97432483D01*
X152987819Y-97426451D01*
X147826473Y-92265105D01*
X147792988Y-92203782D01*
X147791681Y-92158027D01*
X147800500Y-92102352D01*
X147800500Y-91897648D01*
X147777035Y-91749500D01*
X147768477Y-91695465D01*
X147705218Y-91500776D01*
X147652671Y-91397648D01*
X147612287Y-91318390D01*
X147604556Y-91307749D01*
X147491971Y-91152786D01*
X147347213Y-91008028D01*
X147181613Y-90887715D01*
X147181612Y-90887714D01*
X147181610Y-90887713D01*
X147079865Y-90835871D01*
X146999223Y-90794781D01*
X146804534Y-90731522D01*
X146629995Y-90703878D01*
X146602352Y-90699500D01*
X146397648Y-90699500D01*
X146373329Y-90703351D01*
X146195465Y-90731522D01*
X146000776Y-90794781D01*
X145818386Y-90887715D01*
X145652786Y-91008028D01*
X145508028Y-91152786D01*
X145387715Y-91318386D01*
X145294781Y-91500776D01*
X145231522Y-91695465D01*
X145199500Y-91897648D01*
X136380500Y-91897648D01*
X136380500Y-89115800D01*
X136400185Y-89048761D01*
X136452989Y-89003006D01*
X136522147Y-88993062D01*
X136542820Y-88997870D01*
X136575458Y-89008475D01*
X136575461Y-89008475D01*
X136575466Y-89008477D01*
X136777648Y-89040500D01*
X136777649Y-89040500D01*
X136982351Y-89040500D01*
X136982352Y-89040500D01*
X137184534Y-89008477D01*
X137379219Y-88945220D01*
X137561610Y-88852287D01*
X137722402Y-88735466D01*
X137727213Y-88731971D01*
X137727215Y-88731968D01*
X137727219Y-88731966D01*
X137871966Y-88587219D01*
X137871968Y-88587215D01*
X137871971Y-88587213D01*
X137972487Y-88448862D01*
X137992287Y-88421610D01*
X138085220Y-88239219D01*
X138148477Y-88044534D01*
X138180500Y-87842352D01*
X138180500Y-87637648D01*
X138148477Y-87435466D01*
X138129603Y-87377379D01*
X138085218Y-87240776D01*
X138051503Y-87174607D01*
X137992287Y-87058390D01*
X137984556Y-87047749D01*
X137871971Y-86892786D01*
X137727213Y-86748028D01*
X137561614Y-86627715D01*
X137511830Y-86602349D01*
X137468917Y-86580483D01*
X137418123Y-86532511D01*
X137401328Y-86464690D01*
X137423865Y-86398555D01*
X137468917Y-86359516D01*
X137561610Y-86312287D01*
X137685644Y-86222172D01*
X137727213Y-86191971D01*
X137727215Y-86191968D01*
X137727219Y-86191966D01*
X137871966Y-86047219D01*
X137871968Y-86047215D01*
X137871971Y-86047213D01*
X137924732Y-85974590D01*
X137992287Y-85881610D01*
X138085220Y-85699219D01*
X138148477Y-85504534D01*
X138180500Y-85302352D01*
X138180500Y-85097648D01*
X138160652Y-84972335D01*
X138154654Y-84934464D01*
X138152546Y-84921158D01*
X139199500Y-84921158D01*
X139199500Y-84929001D01*
X139199500Y-85078846D01*
X139230261Y-85233489D01*
X139230264Y-85233501D01*
X139290602Y-85379172D01*
X139290609Y-85379185D01*
X139378210Y-85510288D01*
X139378213Y-85510292D01*
X139489707Y-85621786D01*
X139489711Y-85621789D01*
X139620814Y-85709390D01*
X139620827Y-85709397D01*
X139766498Y-85769735D01*
X139766503Y-85769737D01*
X139921153Y-85800499D01*
X139921156Y-85800500D01*
X139921158Y-85800500D01*
X140078844Y-85800500D01*
X140078845Y-85800499D01*
X140233497Y-85769737D01*
X140379179Y-85709394D01*
X140510289Y-85621789D01*
X140621789Y-85510289D01*
X140709394Y-85379179D01*
X140769737Y-85233497D01*
X140788386Y-85139745D01*
X140796760Y-85097648D01*
X143199500Y-85097648D01*
X143199500Y-85302351D01*
X143231522Y-85504534D01*
X143294781Y-85699223D01*
X143387715Y-85881613D01*
X143508028Y-86047213D01*
X143652786Y-86191971D01*
X143807749Y-86304556D01*
X143818390Y-86312287D01*
X143909840Y-86358883D01*
X143911080Y-86359515D01*
X143961876Y-86407490D01*
X143978671Y-86475311D01*
X143956134Y-86541446D01*
X143911080Y-86580485D01*
X143818386Y-86627715D01*
X143652786Y-86748028D01*
X143508028Y-86892786D01*
X143387715Y-87058386D01*
X143294781Y-87240776D01*
X143231522Y-87435465D01*
X143199500Y-87637648D01*
X143199500Y-87842351D01*
X143231522Y-88044534D01*
X143294781Y-88239223D01*
X143387715Y-88421613D01*
X143508028Y-88587213D01*
X143652786Y-88731971D01*
X143743968Y-88798217D01*
X143818390Y-88852287D01*
X143933793Y-88911088D01*
X144000776Y-88945218D01*
X144000778Y-88945218D01*
X144000781Y-88945220D01*
X144105137Y-88979127D01*
X144195465Y-89008477D01*
X144296557Y-89024488D01*
X144397648Y-89040500D01*
X144397649Y-89040500D01*
X144602351Y-89040500D01*
X144602352Y-89040500D01*
X144804534Y-89008477D01*
X144999219Y-88945220D01*
X145181610Y-88852287D01*
X145342402Y-88735466D01*
X145347213Y-88731971D01*
X145347215Y-88731968D01*
X145347219Y-88731966D01*
X145491966Y-88587219D01*
X145491968Y-88587215D01*
X145491971Y-88587213D01*
X145592487Y-88448862D01*
X145612287Y-88421610D01*
X145705220Y-88239219D01*
X145768477Y-88044534D01*
X145800500Y-87842352D01*
X145800500Y-87637648D01*
X145768477Y-87435466D01*
X145749603Y-87377379D01*
X145705218Y-87240776D01*
X145671503Y-87174607D01*
X145612287Y-87058390D01*
X145604556Y-87047749D01*
X145491971Y-86892786D01*
X145347213Y-86748028D01*
X145181614Y-86627715D01*
X145131830Y-86602349D01*
X145088917Y-86580483D01*
X145038123Y-86532511D01*
X145021328Y-86464690D01*
X145043865Y-86398555D01*
X145088917Y-86359516D01*
X145181610Y-86312287D01*
X145305644Y-86222172D01*
X145347213Y-86191971D01*
X145347215Y-86191968D01*
X145347219Y-86191966D01*
X145491966Y-86047219D01*
X145491968Y-86047215D01*
X145491971Y-86047213D01*
X145544732Y-85974590D01*
X145612287Y-85881610D01*
X145705220Y-85699219D01*
X145768477Y-85504534D01*
X145800500Y-85302352D01*
X145800500Y-85097648D01*
X145780652Y-84972335D01*
X145768477Y-84895465D01*
X145705218Y-84700776D01*
X145671503Y-84634607D01*
X145612287Y-84518390D01*
X145604556Y-84507749D01*
X145491971Y-84352786D01*
X145347213Y-84208028D01*
X145181613Y-84087715D01*
X145181612Y-84087714D01*
X145181610Y-84087713D01*
X145124653Y-84058691D01*
X144999223Y-83994781D01*
X144804534Y-83931522D01*
X144629995Y-83903878D01*
X144602352Y-83899500D01*
X144397648Y-83899500D01*
X144373329Y-83903351D01*
X144195465Y-83931522D01*
X144000776Y-83994781D01*
X143818386Y-84087715D01*
X143652786Y-84208028D01*
X143508028Y-84352786D01*
X143387715Y-84518386D01*
X143294781Y-84700776D01*
X143231522Y-84895465D01*
X143199500Y-85097648D01*
X140796760Y-85097648D01*
X140800500Y-85078845D01*
X140800500Y-84921155D01*
X140800499Y-84921153D01*
X140769739Y-84766511D01*
X140769738Y-84766508D01*
X140769737Y-84766503D01*
X140759937Y-84742844D01*
X140750500Y-84695396D01*
X140750500Y-75594462D01*
X140770185Y-75527423D01*
X140786814Y-75506786D01*
X143173964Y-73119635D01*
X143235285Y-73086152D01*
X143304977Y-73091136D01*
X143360910Y-73133008D01*
X143372127Y-73151022D01*
X143387713Y-73181611D01*
X143508028Y-73347213D01*
X143508034Y-73347219D01*
X143652781Y-73491966D01*
X143698384Y-73525098D01*
X143741050Y-73580425D01*
X143749500Y-73625416D01*
X143749500Y-81953918D01*
X143749500Y-81953920D01*
X143749499Y-81953920D01*
X143778340Y-82098907D01*
X143778343Y-82098917D01*
X143834912Y-82235488D01*
X143834916Y-82235495D01*
X143853047Y-82262630D01*
X143853048Y-82262633D01*
X143917046Y-82358414D01*
X143917052Y-82358421D01*
X160793526Y-99234894D01*
X160827011Y-99296217D01*
X160828318Y-99341972D01*
X160819500Y-99397647D01*
X160819500Y-99602351D01*
X160851522Y-99804534D01*
X160914781Y-99999223D01*
X161007715Y-100181613D01*
X161128028Y-100347213D01*
X161272786Y-100491971D01*
X161394535Y-100580425D01*
X161438390Y-100612287D01*
X161554607Y-100671503D01*
X161620776Y-100705218D01*
X161620778Y-100705218D01*
X161620781Y-100705220D01*
X161725137Y-100739127D01*
X161815465Y-100768477D01*
X161916557Y-100784488D01*
X162017648Y-100800500D01*
X162017649Y-100800500D01*
X162222351Y-100800500D01*
X162222352Y-100800500D01*
X162424534Y-100768477D01*
X162619219Y-100705220D01*
X162801610Y-100612287D01*
X162921619Y-100525096D01*
X162967213Y-100491971D01*
X162967215Y-100491968D01*
X162967219Y-100491966D01*
X163111966Y-100347219D01*
X163111968Y-100347215D01*
X163111971Y-100347213D01*
X163164732Y-100274590D01*
X163232287Y-100181610D01*
X163325220Y-99999219D01*
X163388477Y-99804534D01*
X163420500Y-99602352D01*
X163420500Y-99499996D01*
X163440185Y-99432957D01*
X163456819Y-99412315D01*
X164037819Y-98831315D01*
X164099142Y-98797830D01*
X164168834Y-98802814D01*
X164224767Y-98844686D01*
X164249184Y-98910150D01*
X164249500Y-98918996D01*
X164249500Y-107195396D01*
X164240062Y-107242844D01*
X164230263Y-107266503D01*
X164230262Y-107266506D01*
X164230260Y-107266511D01*
X164199500Y-107421153D01*
X164199500Y-107578846D01*
X164230261Y-107733489D01*
X164230264Y-107733501D01*
X164290602Y-107879172D01*
X164290609Y-107879185D01*
X164378210Y-108010288D01*
X164378213Y-108010292D01*
X164489707Y-108121786D01*
X164489711Y-108121789D01*
X164620814Y-108209390D01*
X164620827Y-108209397D01*
X164712938Y-108247550D01*
X164766503Y-108269737D01*
X164921153Y-108300499D01*
X164921156Y-108300500D01*
X164921158Y-108300500D01*
X165078844Y-108300500D01*
X165078845Y-108300499D01*
X165233497Y-108269737D01*
X165379179Y-108209394D01*
X165510289Y-108121789D01*
X165621789Y-108010289D01*
X165709394Y-107879179D01*
X165769737Y-107733497D01*
X165800500Y-107578842D01*
X165800500Y-107421158D01*
X165800500Y-107421155D01*
X165800499Y-107421153D01*
X165769739Y-107266511D01*
X165769738Y-107266508D01*
X165769737Y-107266503D01*
X165759937Y-107242844D01*
X165750500Y-107195396D01*
X165750500Y-98159945D01*
X165770185Y-98092906D01*
X165786814Y-98072269D01*
X170572264Y-93286818D01*
X170633587Y-93253334D01*
X170659945Y-93250500D01*
X174695396Y-93250500D01*
X174742844Y-93259937D01*
X174766503Y-93269737D01*
X174766508Y-93269738D01*
X174766511Y-93269739D01*
X174921153Y-93300499D01*
X174921156Y-93300500D01*
X174921158Y-93300500D01*
X175078844Y-93300500D01*
X175078845Y-93300499D01*
X175233497Y-93269737D01*
X175379179Y-93209394D01*
X175510289Y-93121789D01*
X175621789Y-93010289D01*
X175709394Y-92879179D01*
X175769737Y-92733497D01*
X175800500Y-92578842D01*
X175800500Y-92421158D01*
X175800500Y-92421155D01*
X175800499Y-92421153D01*
X175769739Y-92266511D01*
X175769738Y-92266508D01*
X175769737Y-92266503D01*
X175759937Y-92242844D01*
X175750500Y-92195396D01*
X175750500Y-90426079D01*
X175721659Y-90281092D01*
X175721658Y-90281091D01*
X175721658Y-90281087D01*
X175706842Y-90245317D01*
X175665087Y-90144511D01*
X175665080Y-90144498D01*
X175582951Y-90021584D01*
X175582948Y-90021580D01*
X175536819Y-89975451D01*
X175503334Y-89914128D01*
X175500500Y-89887770D01*
X175500500Y-88409946D01*
X175520185Y-88342907D01*
X175536819Y-88322265D01*
X176246800Y-87612284D01*
X177138836Y-86720247D01*
X177200157Y-86686764D01*
X177269849Y-86691748D01*
X177325782Y-86733620D01*
X177348988Y-86788530D01*
X177351523Y-86804536D01*
X177414781Y-86999223D01*
X177507715Y-87181613D01*
X177628028Y-87347213D01*
X177772786Y-87491971D01*
X177927749Y-87604556D01*
X177938390Y-87612287D01*
X178029840Y-87658883D01*
X178031080Y-87659515D01*
X178081876Y-87707490D01*
X178098671Y-87775311D01*
X178076134Y-87841446D01*
X178031080Y-87880485D01*
X177938386Y-87927715D01*
X177772786Y-88048028D01*
X177628028Y-88192786D01*
X177507715Y-88358386D01*
X177414781Y-88540776D01*
X177351522Y-88735465D01*
X177319500Y-88937648D01*
X177319500Y-89142351D01*
X177351522Y-89344534D01*
X177414781Y-89539223D01*
X177507715Y-89721613D01*
X177628028Y-89887213D01*
X177772786Y-90031971D01*
X177927669Y-90144498D01*
X177938390Y-90152287D01*
X178031051Y-90199500D01*
X178120776Y-90245218D01*
X178120778Y-90245218D01*
X178120781Y-90245220D01*
X178225137Y-90279127D01*
X178315465Y-90308477D01*
X178412955Y-90323918D01*
X178517648Y-90340500D01*
X178517649Y-90340500D01*
X178722351Y-90340500D01*
X178722352Y-90340500D01*
X178924534Y-90308477D01*
X179119219Y-90245220D01*
X179301610Y-90152287D01*
X179394590Y-90084732D01*
X179467213Y-90031971D01*
X179467215Y-90031968D01*
X179467219Y-90031966D01*
X179611966Y-89887219D01*
X179611968Y-89887215D01*
X179611971Y-89887213D01*
X179664732Y-89814590D01*
X179732287Y-89721610D01*
X179825220Y-89539219D01*
X179888477Y-89344534D01*
X179920500Y-89142352D01*
X179920500Y-89142345D01*
X179920779Y-89140584D01*
X179950708Y-89077449D01*
X180010019Y-89040517D01*
X180079882Y-89041515D01*
X180130933Y-89072300D01*
X180463181Y-89404548D01*
X180496666Y-89465871D01*
X180499500Y-89492229D01*
X180499500Y-96124199D01*
X180479815Y-96191238D01*
X180427011Y-96236993D01*
X180357853Y-96246937D01*
X180337183Y-96242130D01*
X180304542Y-96231524D01*
X180304535Y-96231523D01*
X180203443Y-96215511D01*
X180102352Y-96199500D01*
X179897648Y-96199500D01*
X179873329Y-96203351D01*
X179695465Y-96231522D01*
X179500776Y-96294781D01*
X179318386Y-96387715D01*
X179152786Y-96508028D01*
X179008028Y-96652786D01*
X178887715Y-96818386D01*
X178794781Y-97000776D01*
X178731522Y-97195465D01*
X178699500Y-97397648D01*
X178699500Y-97602351D01*
X178731522Y-97804534D01*
X178794781Y-97999223D01*
X178887715Y-98181613D01*
X179008028Y-98347213D01*
X179152786Y-98491971D01*
X179307749Y-98604556D01*
X179318390Y-98612287D01*
X179397864Y-98652781D01*
X179500776Y-98705218D01*
X179500778Y-98705218D01*
X179500781Y-98705220D01*
X179605137Y-98739127D01*
X179695465Y-98768477D01*
X179796557Y-98784488D01*
X179897648Y-98800500D01*
X179897649Y-98800500D01*
X180102351Y-98800500D01*
X180102352Y-98800500D01*
X180304534Y-98768477D01*
X180304539Y-98768475D01*
X180304541Y-98768475D01*
X180337180Y-98757870D01*
X180407021Y-98755873D01*
X180466855Y-98791953D01*
X180497684Y-98854653D01*
X180499500Y-98875800D01*
X180499500Y-108587769D01*
X180479815Y-108654808D01*
X180463181Y-108675450D01*
X180265104Y-108873526D01*
X180203781Y-108907011D01*
X180158025Y-108908318D01*
X180102352Y-108899500D01*
X179897648Y-108899500D01*
X179873329Y-108903351D01*
X179695465Y-108931522D01*
X179500776Y-108994781D01*
X179318386Y-109087715D01*
X179152786Y-109208028D01*
X179008028Y-109352786D01*
X178887715Y-109518386D01*
X178794781Y-109700776D01*
X178731522Y-109895465D01*
X178699500Y-110097648D01*
X178699500Y-110302351D01*
X178731522Y-110504534D01*
X178794781Y-110699223D01*
X178887715Y-110881613D01*
X179008028Y-111047213D01*
X179152786Y-111191971D01*
X179307749Y-111304556D01*
X179318390Y-111312287D01*
X179397864Y-111352781D01*
X179500776Y-111405218D01*
X179500778Y-111405218D01*
X179500781Y-111405220D01*
X179576477Y-111429815D01*
X179695465Y-111468477D01*
X179796557Y-111484488D01*
X179897648Y-111500500D01*
X179897649Y-111500500D01*
X180102351Y-111500500D01*
X180102352Y-111500500D01*
X180304534Y-111468477D01*
X180499219Y-111405220D01*
X180681610Y-111312287D01*
X180821785Y-111210445D01*
X180847213Y-111191971D01*
X180847215Y-111191968D01*
X180847219Y-111191966D01*
X180991966Y-111047219D01*
X180991968Y-111047215D01*
X180991971Y-111047213D01*
X181099289Y-110899500D01*
X181112287Y-110881610D01*
X181205220Y-110699219D01*
X181268477Y-110504534D01*
X181300500Y-110302352D01*
X181300500Y-110097648D01*
X181291681Y-110041971D01*
X181300635Y-109972680D01*
X181326470Y-109934896D01*
X181832952Y-109428416D01*
X181895967Y-109334106D01*
X181915084Y-109305495D01*
X181971658Y-109168913D01*
X182000500Y-109023918D01*
X182000500Y-89056082D01*
X182000500Y-89056079D01*
X181987964Y-88993062D01*
X181978448Y-88945220D01*
X181971659Y-88911088D01*
X181924906Y-88798217D01*
X181915084Y-88774505D01*
X181915083Y-88774504D01*
X181915080Y-88774498D01*
X181832952Y-88651585D01*
X181832951Y-88651584D01*
X181728416Y-88547049D01*
X179946473Y-86765106D01*
X179912988Y-86703783D01*
X179911681Y-86658028D01*
X179920500Y-86602352D01*
X179920500Y-86397648D01*
X179906980Y-86312287D01*
X179888477Y-86195465D01*
X179859127Y-86105137D01*
X179825220Y-86000781D01*
X179825218Y-86000778D01*
X179825218Y-86000776D01*
X179780396Y-85912809D01*
X179732287Y-85818390D01*
X179701782Y-85776403D01*
X179611971Y-85652786D01*
X179467213Y-85508028D01*
X179301613Y-85387715D01*
X179301612Y-85387714D01*
X179301610Y-85387713D01*
X179244653Y-85358691D01*
X179119223Y-85294781D01*
X178924536Y-85231523D01*
X178908530Y-85228988D01*
X178845396Y-85199057D01*
X178808466Y-85139745D01*
X178809465Y-85069883D01*
X178840247Y-85018836D01*
X180452951Y-83406133D01*
X180535084Y-83283212D01*
X180591658Y-83146630D01*
X180620500Y-83001635D01*
X180620500Y-73208315D01*
X180620500Y-73208312D01*
X180591659Y-73063325D01*
X180591658Y-73063324D01*
X180591658Y-73063320D01*
X180545874Y-72952787D01*
X180535086Y-72926742D01*
X180535085Y-72926740D01*
X180502186Y-72877503D01*
X180502185Y-72877501D01*
X180452956Y-72803822D01*
X180452952Y-72803817D01*
X179747612Y-72098477D01*
X179714127Y-72037154D01*
X179719111Y-71967462D01*
X179730511Y-71946238D01*
X179729741Y-71945766D01*
X179732282Y-71941618D01*
X179732283Y-71941614D01*
X179732287Y-71941610D01*
X179825220Y-71759219D01*
X179888477Y-71564534D01*
X179920500Y-71362352D01*
X179920500Y-71157648D01*
X179888477Y-70955466D01*
X179825220Y-70760781D01*
X179825218Y-70760778D01*
X179825218Y-70760776D01*
X179791503Y-70694607D01*
X179732287Y-70578390D01*
X179716892Y-70557200D01*
X179611971Y-70412786D01*
X179467213Y-70268028D01*
X179301613Y-70147715D01*
X179301612Y-70147714D01*
X179301610Y-70147713D01*
X179241898Y-70117288D01*
X179119223Y-70054781D01*
X178924534Y-69991522D01*
X178749995Y-69963878D01*
X178722352Y-69959500D01*
X178517648Y-69959500D01*
X178493329Y-69963351D01*
X178315465Y-69991522D01*
X178120776Y-70054781D01*
X177938386Y-70147715D01*
X177772786Y-70268028D01*
X177628028Y-70412786D01*
X177507715Y-70578386D01*
X177414781Y-70760776D01*
X177351522Y-70955465D01*
X177319500Y-71157648D01*
X177319500Y-71362351D01*
X177351522Y-71564534D01*
X177414781Y-71759223D01*
X177507717Y-71941618D01*
X177510259Y-71945766D01*
X177508312Y-71946958D01*
X177528519Y-72003993D01*
X177512542Y-72072012D01*
X177492387Y-72098477D01*
X170417050Y-79173813D01*
X170417044Y-79173821D01*
X170367812Y-79247501D01*
X170367813Y-79247502D01*
X170334921Y-79296729D01*
X170334914Y-79296741D01*
X170278342Y-79433319D01*
X170278340Y-79433325D01*
X170249500Y-79578312D01*
X170249500Y-85374582D01*
X170229815Y-85441621D01*
X170198385Y-85474900D01*
X170152787Y-85508028D01*
X170152782Y-85508032D01*
X170008028Y-85652786D01*
X169887715Y-85818386D01*
X169794781Y-86000776D01*
X169731522Y-86195465D01*
X169699500Y-86397648D01*
X169699500Y-86602351D01*
X169731522Y-86804534D01*
X169794781Y-86999223D01*
X169887715Y-87181613D01*
X170008028Y-87347213D01*
X170152786Y-87491971D01*
X170307749Y-87604556D01*
X170318390Y-87612287D01*
X170409840Y-87658883D01*
X170411080Y-87659515D01*
X170461876Y-87707490D01*
X170478671Y-87775311D01*
X170456134Y-87841446D01*
X170411080Y-87880485D01*
X170318386Y-87927715D01*
X170152786Y-88048028D01*
X170008028Y-88192786D01*
X169887715Y-88358386D01*
X169794781Y-88540776D01*
X169731522Y-88735465D01*
X169699500Y-88937648D01*
X169699500Y-89142351D01*
X169731522Y-89344534D01*
X169794781Y-89539223D01*
X169887715Y-89721613D01*
X170008028Y-89887213D01*
X170152786Y-90031971D01*
X170318385Y-90152284D01*
X170318387Y-90152285D01*
X170318390Y-90152287D01*
X170348974Y-90167870D01*
X170399770Y-90215843D01*
X170416566Y-90283664D01*
X170394030Y-90349799D01*
X170380361Y-90366036D01*
X163632181Y-97114217D01*
X163570858Y-97147702D01*
X163501166Y-97142718D01*
X163445233Y-97100846D01*
X163420816Y-97035382D01*
X163420500Y-97026536D01*
X163420500Y-96857648D01*
X163388477Y-96655465D01*
X163325218Y-96460776D01*
X163273865Y-96359991D01*
X163232287Y-96278390D01*
X163198237Y-96231524D01*
X163111971Y-96112786D01*
X162967213Y-95968028D01*
X162801613Y-95847715D01*
X162801612Y-95847714D01*
X162801610Y-95847713D01*
X162741898Y-95817288D01*
X162619223Y-95754781D01*
X162424534Y-95691522D01*
X162249995Y-95663878D01*
X162222352Y-95659500D01*
X162017648Y-95659500D01*
X161993329Y-95663351D01*
X161815465Y-95691522D01*
X161620776Y-95754781D01*
X161438386Y-95847715D01*
X161272786Y-95968028D01*
X161128028Y-96112786D01*
X161007715Y-96278386D01*
X160914781Y-96460776D01*
X160851522Y-96655465D01*
X160819220Y-96859415D01*
X160789291Y-96922550D01*
X160729979Y-96959481D01*
X160660117Y-96958483D01*
X160609066Y-96927698D01*
X150999212Y-87317844D01*
X158400000Y-87317844D01*
X158406401Y-87377372D01*
X158406403Y-87377379D01*
X158456645Y-87512086D01*
X158456649Y-87512093D01*
X158542809Y-87627187D01*
X158542812Y-87627190D01*
X158657906Y-87713350D01*
X158657913Y-87713354D01*
X158792620Y-87763596D01*
X158792627Y-87763598D01*
X158852155Y-87769999D01*
X158852172Y-87770000D01*
X159905000Y-87770000D01*
X160405000Y-87770000D01*
X161457828Y-87770000D01*
X161457844Y-87769999D01*
X161517372Y-87763598D01*
X161517379Y-87763596D01*
X161652086Y-87713354D01*
X161652093Y-87713350D01*
X161767187Y-87627190D01*
X161767190Y-87627187D01*
X161853350Y-87512093D01*
X161853354Y-87512086D01*
X161903596Y-87377379D01*
X161903598Y-87377372D01*
X161909999Y-87317844D01*
X161910000Y-87317827D01*
X161910000Y-87020000D01*
X160405000Y-87020000D01*
X160405000Y-87770000D01*
X159905000Y-87770000D01*
X159905000Y-87020000D01*
X158400000Y-87020000D01*
X158400000Y-87317844D01*
X150999212Y-87317844D01*
X149903523Y-86222155D01*
X158400000Y-86222155D01*
X158400000Y-86520000D01*
X159905000Y-86520000D01*
X160405000Y-86520000D01*
X161910000Y-86520000D01*
X161910000Y-86222172D01*
X161909999Y-86222155D01*
X161903598Y-86162627D01*
X161903596Y-86162620D01*
X161853354Y-86027913D01*
X161853350Y-86027906D01*
X161767190Y-85912812D01*
X161767187Y-85912809D01*
X161652093Y-85826649D01*
X161652086Y-85826645D01*
X161517379Y-85776403D01*
X161517372Y-85776401D01*
X161457844Y-85770000D01*
X160405000Y-85770000D01*
X160405000Y-86520000D01*
X159905000Y-86520000D01*
X159905000Y-85770000D01*
X158852155Y-85770000D01*
X158792627Y-85776401D01*
X158792620Y-85776403D01*
X158657913Y-85826645D01*
X158657906Y-85826649D01*
X158542812Y-85912809D01*
X158542809Y-85912812D01*
X158456649Y-86027906D01*
X158456645Y-86027913D01*
X158406403Y-86162620D01*
X158406401Y-86162627D01*
X158400000Y-86222155D01*
X149903523Y-86222155D01*
X145286819Y-81605451D01*
X145253334Y-81544128D01*
X145250500Y-81517770D01*
X145250500Y-73625416D01*
X145270185Y-73558377D01*
X145301613Y-73525099D01*
X145347219Y-73491966D01*
X145491966Y-73347219D01*
X145491968Y-73347215D01*
X145491971Y-73347213D01*
X145576298Y-73231144D01*
X145612287Y-73181610D01*
X145627871Y-73151025D01*
X145675845Y-73100228D01*
X145743666Y-73083433D01*
X145809801Y-73105970D01*
X145826037Y-73119638D01*
X149213181Y-76506781D01*
X149246666Y-76568104D01*
X149249500Y-76594462D01*
X149249500Y-77458918D01*
X149249500Y-77458920D01*
X149249499Y-77458920D01*
X149278340Y-77603907D01*
X149278343Y-77603917D01*
X149334912Y-77740488D01*
X149334916Y-77740495D01*
X149353611Y-77768474D01*
X149353612Y-77768477D01*
X149417046Y-77863414D01*
X149417052Y-77863421D01*
X155062347Y-83508715D01*
X155095832Y-83570038D01*
X155095437Y-83614665D01*
X155096738Y-83614805D01*
X155095909Y-83622516D01*
X155095909Y-83622517D01*
X155089501Y-83682123D01*
X155089500Y-83682135D01*
X155089500Y-84777870D01*
X155089501Y-84777876D01*
X155095908Y-84837483D01*
X155146202Y-84972328D01*
X155146206Y-84972335D01*
X155232452Y-85087544D01*
X155232455Y-85087547D01*
X155347664Y-85173793D01*
X155347671Y-85173797D01*
X155482517Y-85224091D01*
X155482516Y-85224091D01*
X155489444Y-85224835D01*
X155542127Y-85230500D01*
X158147872Y-85230499D01*
X158207483Y-85224091D01*
X158342331Y-85173796D01*
X158457546Y-85087546D01*
X158543796Y-84972331D01*
X158594091Y-84837483D01*
X158600500Y-84777873D01*
X158600499Y-83682128D01*
X158594091Y-83622517D01*
X158591162Y-83614665D01*
X158543797Y-83487671D01*
X158543793Y-83487664D01*
X158457547Y-83372455D01*
X158457544Y-83372452D01*
X158342335Y-83286206D01*
X158342328Y-83286202D01*
X158207482Y-83235908D01*
X158207483Y-83235908D01*
X158147883Y-83229501D01*
X158147881Y-83229500D01*
X158147873Y-83229500D01*
X158147865Y-83229500D01*
X156957230Y-83229500D01*
X156890191Y-83209815D01*
X156869549Y-83193181D01*
X151627089Y-77950721D01*
X151593604Y-77889398D01*
X151598588Y-77819706D01*
X151640460Y-77763773D01*
X151676449Y-77745110D01*
X151799219Y-77705220D01*
X151981610Y-77612287D01*
X152074590Y-77544732D01*
X152147213Y-77491971D01*
X152147215Y-77491968D01*
X152147219Y-77491966D01*
X152291966Y-77347219D01*
X152291968Y-77347215D01*
X152291971Y-77347213D01*
X152344732Y-77274590D01*
X152412287Y-77181610D01*
X152505220Y-76999219D01*
X152568477Y-76804534D01*
X152600500Y-76602352D01*
X152600500Y-76397648D01*
X162699500Y-76397648D01*
X162699500Y-76602351D01*
X162731522Y-76804534D01*
X162794781Y-76999223D01*
X162887715Y-77181613D01*
X163008028Y-77347213D01*
X163152786Y-77491971D01*
X163306856Y-77603907D01*
X163318390Y-77612287D01*
X163434607Y-77671503D01*
X163500776Y-77705218D01*
X163500778Y-77705218D01*
X163500781Y-77705220D01*
X163605137Y-77739127D01*
X163695465Y-77768477D01*
X163796557Y-77784488D01*
X163897648Y-77800500D01*
X163897649Y-77800500D01*
X164102351Y-77800500D01*
X164102352Y-77800500D01*
X164304534Y-77768477D01*
X164499219Y-77705220D01*
X164681610Y-77612287D01*
X164774590Y-77544732D01*
X164847213Y-77491971D01*
X164847215Y-77491968D01*
X164847219Y-77491966D01*
X164991966Y-77347219D01*
X164991968Y-77347215D01*
X164991971Y-77347213D01*
X165044732Y-77274590D01*
X165112287Y-77181610D01*
X165205220Y-76999219D01*
X165268477Y-76804534D01*
X165300500Y-76602352D01*
X165300500Y-76397648D01*
X165268477Y-76195466D01*
X165205220Y-76000781D01*
X165205218Y-76000778D01*
X165205218Y-76000776D01*
X165171503Y-75934607D01*
X165112287Y-75818390D01*
X165104556Y-75807749D01*
X164991971Y-75652786D01*
X164847213Y-75508028D01*
X164681613Y-75387715D01*
X164681612Y-75387714D01*
X164681610Y-75387713D01*
X164624653Y-75358691D01*
X164499223Y-75294781D01*
X164304534Y-75231522D01*
X164129995Y-75203878D01*
X164102352Y-75199500D01*
X163897648Y-75199500D01*
X163873329Y-75203351D01*
X163695465Y-75231522D01*
X163500776Y-75294781D01*
X163318386Y-75387715D01*
X163152786Y-75508028D01*
X163008028Y-75652786D01*
X162887715Y-75818386D01*
X162794781Y-76000776D01*
X162731522Y-76195465D01*
X162699500Y-76397648D01*
X152600500Y-76397648D01*
X152591570Y-76341271D01*
X152591479Y-76340652D01*
X152596240Y-76306683D01*
X152600635Y-76272679D01*
X152601104Y-76271992D01*
X152601179Y-76271459D01*
X152602593Y-76269815D01*
X152626470Y-76234895D01*
X154274548Y-74586819D01*
X154335871Y-74553334D01*
X154362229Y-74550500D01*
X157426082Y-74550500D01*
X169874582Y-74550500D01*
X169941621Y-74570185D01*
X169974900Y-74601615D01*
X170008028Y-74647212D01*
X170008032Y-74647217D01*
X170152786Y-74791971D01*
X170274535Y-74880425D01*
X170318390Y-74912287D01*
X170434607Y-74971503D01*
X170500776Y-75005218D01*
X170500778Y-75005218D01*
X170500781Y-75005220D01*
X170605137Y-75039127D01*
X170695465Y-75068477D01*
X170796557Y-75084488D01*
X170897648Y-75100500D01*
X170897649Y-75100500D01*
X171102351Y-75100500D01*
X171102352Y-75100500D01*
X171304534Y-75068477D01*
X171499219Y-75005220D01*
X171681610Y-74912287D01*
X171798306Y-74827503D01*
X171847213Y-74791971D01*
X171847215Y-74791968D01*
X171847219Y-74791966D01*
X171991966Y-74647219D01*
X171991968Y-74647215D01*
X171991971Y-74647213D01*
X172062236Y-74550500D01*
X172112287Y-74481610D01*
X172205220Y-74299219D01*
X172268477Y-74104534D01*
X172300500Y-73902352D01*
X172300500Y-73697648D01*
X172286980Y-73612287D01*
X172268477Y-73495465D01*
X172235673Y-73394505D01*
X172205220Y-73300781D01*
X172205218Y-73300778D01*
X172205218Y-73300776D01*
X172158106Y-73208315D01*
X172112287Y-73118390D01*
X172088865Y-73086152D01*
X171991971Y-72952786D01*
X171847219Y-72808034D01*
X171788130Y-72765104D01*
X171753547Y-72739978D01*
X171710882Y-72684649D01*
X171704903Y-72615036D01*
X171737508Y-72553240D01*
X171787426Y-72521955D01*
X171869334Y-72494814D01*
X172018656Y-72402712D01*
X172142712Y-72278656D01*
X172234814Y-72129334D01*
X172289999Y-71962797D01*
X172300500Y-71860009D01*
X172300499Y-70659992D01*
X172289999Y-70557203D01*
X172234814Y-70390666D01*
X172142712Y-70241344D01*
X172018656Y-70117288D01*
X171869334Y-70025186D01*
X171702797Y-69970001D01*
X171702795Y-69970000D01*
X171600010Y-69959500D01*
X170399998Y-69959500D01*
X170399981Y-69959501D01*
X170297203Y-69970000D01*
X170297200Y-69970001D01*
X170130668Y-70025185D01*
X170130663Y-70025187D01*
X169981342Y-70117289D01*
X169857289Y-70241342D01*
X169765187Y-70390663D01*
X169765186Y-70390666D01*
X169710001Y-70557203D01*
X169710001Y-70557204D01*
X169710000Y-70557204D01*
X169699500Y-70659983D01*
X169699500Y-71860001D01*
X169699501Y-71860018D01*
X169710000Y-71962796D01*
X169710001Y-71962799D01*
X169746191Y-72072012D01*
X169765186Y-72129334D01*
X169857288Y-72278656D01*
X169981344Y-72402712D01*
X170130666Y-72494814D01*
X170212570Y-72521954D01*
X170270015Y-72561727D01*
X170296838Y-72626243D01*
X170284523Y-72695018D01*
X170246451Y-72739978D01*
X170152787Y-72808028D01*
X170152782Y-72808032D01*
X170008032Y-72952782D01*
X170008028Y-72952787D01*
X169974900Y-72998385D01*
X169919571Y-73041051D01*
X169874582Y-73049500D01*
X153926076Y-73049500D01*
X153897242Y-73055234D01*
X153897243Y-73055235D01*
X153781093Y-73078339D01*
X153781083Y-73078342D01*
X153701081Y-73111479D01*
X153701082Y-73111480D01*
X153644506Y-73134915D01*
X153644503Y-73134917D01*
X153630451Y-73144306D01*
X153574622Y-73181610D01*
X153574621Y-73181611D01*
X153521586Y-73217046D01*
X153521581Y-73217050D01*
X151565105Y-75173526D01*
X151503782Y-75207011D01*
X151458026Y-75208318D01*
X151402352Y-75199500D01*
X151197648Y-75199500D01*
X151173329Y-75203351D01*
X150995465Y-75231522D01*
X150800776Y-75294781D01*
X150618386Y-75387715D01*
X150471498Y-75494435D01*
X150405692Y-75517915D01*
X150337638Y-75502089D01*
X150310932Y-75481798D01*
X145627612Y-70798477D01*
X145594127Y-70737154D01*
X145599111Y-70667462D01*
X145610511Y-70646238D01*
X145609741Y-70645766D01*
X145612282Y-70641618D01*
X145612283Y-70641614D01*
X145612287Y-70641610D01*
X145705220Y-70459219D01*
X145768477Y-70264534D01*
X145800500Y-70062352D01*
X145800500Y-69857648D01*
X145768477Y-69655466D01*
X145705220Y-69460781D01*
X145705218Y-69460778D01*
X145705218Y-69460776D01*
X145653865Y-69359991D01*
X145612287Y-69278390D01*
X145596892Y-69257200D01*
X145491971Y-69112786D01*
X145347213Y-68968028D01*
X145181613Y-68847715D01*
X145181612Y-68847714D01*
X145181610Y-68847713D01*
X145121898Y-68817288D01*
X144999223Y-68754781D01*
X144804534Y-68691522D01*
X144629995Y-68663878D01*
X144602352Y-68659500D01*
X144397648Y-68659500D01*
X144373329Y-68663351D01*
X144195465Y-68691522D01*
X144000776Y-68754781D01*
X143818386Y-68847715D01*
X143652786Y-68968028D01*
X143508028Y-69112786D01*
X143387715Y-69278386D01*
X143294781Y-69460776D01*
X143231522Y-69655465D01*
X143199500Y-69857648D01*
X143199500Y-70062351D01*
X143231522Y-70264534D01*
X143294781Y-70459223D01*
X143387712Y-70641608D01*
X143390256Y-70645759D01*
X143388310Y-70646951D01*
X143408519Y-70703992D01*
X143392542Y-70772011D01*
X143372387Y-70798476D01*
X139417050Y-74753813D01*
X139417044Y-74753821D01*
X139367812Y-74827501D01*
X139367813Y-74827502D01*
X139334921Y-74876729D01*
X139334914Y-74876741D01*
X139278342Y-75013319D01*
X139278340Y-75013325D01*
X139249500Y-75158312D01*
X139249500Y-84695396D01*
X139248049Y-84702687D01*
X139246408Y-84722916D01*
X139244079Y-84733147D01*
X139230263Y-84766503D01*
X139199500Y-84921158D01*
X138152546Y-84921158D01*
X138148477Y-84895465D01*
X138085218Y-84700776D01*
X138051503Y-84634607D01*
X137992287Y-84518390D01*
X137984556Y-84507749D01*
X137871971Y-84352786D01*
X137727213Y-84208028D01*
X137561613Y-84087715D01*
X137561612Y-84087714D01*
X137561610Y-84087713D01*
X137504653Y-84058691D01*
X137379223Y-83994781D01*
X137184534Y-83931522D01*
X137009995Y-83903878D01*
X136982352Y-83899500D01*
X136777648Y-83899500D01*
X136723704Y-83908044D01*
X136575464Y-83931523D01*
X136575457Y-83931524D01*
X136542817Y-83942130D01*
X136472976Y-83944125D01*
X136413143Y-83908044D01*
X136382316Y-83845343D01*
X136380500Y-83824199D01*
X136380500Y-74112229D01*
X136400185Y-74045190D01*
X136416815Y-74024552D01*
X136614895Y-73826471D01*
X136676216Y-73792988D01*
X136721971Y-73791681D01*
X136777648Y-73800500D01*
X136777649Y-73800500D01*
X136982351Y-73800500D01*
X136982352Y-73800500D01*
X137184534Y-73768477D01*
X137379219Y-73705220D01*
X137561610Y-73612287D01*
X137722402Y-73495466D01*
X137727213Y-73491971D01*
X137727215Y-73491968D01*
X137727219Y-73491966D01*
X137871966Y-73347219D01*
X137871968Y-73347215D01*
X137871971Y-73347213D01*
X137926919Y-73271582D01*
X137992287Y-73181610D01*
X138085220Y-72999219D01*
X138148477Y-72804534D01*
X138180500Y-72602352D01*
X138180500Y-72397648D01*
X138148477Y-72195466D01*
X138126988Y-72129331D01*
X138092631Y-72023590D01*
X138085220Y-72000781D01*
X138085218Y-72000778D01*
X138085218Y-72000776D01*
X138051503Y-71934607D01*
X137992287Y-71818390D01*
X137949300Y-71759223D01*
X137871971Y-71652786D01*
X137727219Y-71508034D01*
X137727211Y-71508028D01*
X137633547Y-71439978D01*
X137590882Y-71384649D01*
X137584903Y-71315036D01*
X137617508Y-71253240D01*
X137667426Y-71221955D01*
X137749334Y-71194814D01*
X137898656Y-71102712D01*
X138022712Y-70978656D01*
X138114814Y-70829334D01*
X138169999Y-70662797D01*
X138180500Y-70560009D01*
X138180499Y-69359992D01*
X138169999Y-69257203D01*
X138114814Y-69090666D01*
X138022712Y-68941344D01*
X137898656Y-68817288D01*
X137749334Y-68725186D01*
X137582797Y-68670001D01*
X137582795Y-68670000D01*
X137480010Y-68659500D01*
X136279998Y-68659500D01*
X136279981Y-68659501D01*
X136177203Y-68670000D01*
X136177200Y-68670001D01*
X136010668Y-68725185D01*
X136010663Y-68725187D01*
X135861342Y-68817289D01*
X135737289Y-68941342D01*
X135645187Y-69090663D01*
X135645186Y-69090666D01*
X135590001Y-69257203D01*
X135590001Y-69257204D01*
X135590000Y-69257204D01*
X135579500Y-69359983D01*
X135579500Y-70560001D01*
X135579501Y-70560018D01*
X135590000Y-70662796D01*
X135590001Y-70662799D01*
X135626191Y-70772011D01*
X135645186Y-70829334D01*
X135737288Y-70978656D01*
X135861344Y-71102712D01*
X136010666Y-71194814D01*
X136092570Y-71221954D01*
X136150015Y-71261727D01*
X136176838Y-71326243D01*
X136164523Y-71395018D01*
X136126451Y-71439978D01*
X136032787Y-71508028D01*
X136032782Y-71508032D01*
X135888028Y-71652786D01*
X135767715Y-71818386D01*
X135674781Y-72000776D01*
X135611522Y-72195465D01*
X135579500Y-72397648D01*
X135579500Y-72602351D01*
X135588318Y-72658025D01*
X135579364Y-72727318D01*
X135553526Y-72765104D01*
X135047049Y-73271582D01*
X135047043Y-73271589D01*
X135027538Y-73300781D01*
X135027539Y-73300782D01*
X134964914Y-73394508D01*
X134908343Y-73531082D01*
X134908340Y-73531092D01*
X134879500Y-73676079D01*
X134879500Y-100707770D01*
X134859815Y-100774809D01*
X134843181Y-100795451D01*
X132765105Y-102873526D01*
X132703782Y-102907011D01*
X132658026Y-102908318D01*
X132602352Y-102899500D01*
X132397648Y-102899500D01*
X132373329Y-102903351D01*
X132195465Y-102931522D01*
X132000776Y-102994781D01*
X131818386Y-103087715D01*
X131652786Y-103208028D01*
X131508028Y-103352786D01*
X131387715Y-103518386D01*
X131294781Y-103700776D01*
X131231522Y-103895465D01*
X131199500Y-104097648D01*
X130000500Y-104097648D01*
X130000500Y-91397648D01*
X131199500Y-91397648D01*
X131199500Y-91602351D01*
X131231522Y-91804534D01*
X131294781Y-91999223D01*
X131347327Y-92102349D01*
X131375695Y-92158024D01*
X131387715Y-92181613D01*
X131508028Y-92347213D01*
X131652786Y-92491971D01*
X131772359Y-92578844D01*
X131818390Y-92612287D01*
X131934607Y-92671503D01*
X132000776Y-92705218D01*
X132000778Y-92705218D01*
X132000781Y-92705220D01*
X132087784Y-92733489D01*
X132195465Y-92768477D01*
X132296557Y-92784488D01*
X132397648Y-92800500D01*
X132397649Y-92800500D01*
X132602351Y-92800500D01*
X132602352Y-92800500D01*
X132804534Y-92768477D01*
X132999219Y-92705220D01*
X133181610Y-92612287D01*
X133337231Y-92499223D01*
X133347213Y-92491971D01*
X133347215Y-92491968D01*
X133347219Y-92491966D01*
X133491966Y-92347219D01*
X133491968Y-92347215D01*
X133491971Y-92347213D01*
X133567796Y-92242847D01*
X133612287Y-92181610D01*
X133705220Y-91999219D01*
X133768477Y-91804534D01*
X133800500Y-91602352D01*
X133800500Y-91397648D01*
X133768477Y-91195466D01*
X133754609Y-91152786D01*
X133739127Y-91105137D01*
X133705220Y-91000781D01*
X133705218Y-91000778D01*
X133705218Y-91000776D01*
X133647610Y-90887715D01*
X133612287Y-90818390D01*
X133595134Y-90794781D01*
X133491971Y-90652786D01*
X133347213Y-90508028D01*
X133181613Y-90387715D01*
X133181612Y-90387714D01*
X133181610Y-90387713D01*
X133107200Y-90349799D01*
X132999223Y-90294781D01*
X132804534Y-90231522D01*
X132629995Y-90203878D01*
X132602352Y-90199500D01*
X132397648Y-90199500D01*
X132373329Y-90203351D01*
X132195465Y-90231522D01*
X132000776Y-90294781D01*
X131818386Y-90387715D01*
X131652786Y-90508028D01*
X131508028Y-90652786D01*
X131387715Y-90818386D01*
X131294781Y-91000776D01*
X131231522Y-91195465D01*
X131199500Y-91397648D01*
X130000500Y-91397648D01*
X130000500Y-65124500D01*
X130020185Y-65057461D01*
X130072989Y-65011706D01*
X130124500Y-65000500D01*
X184875500Y-65000500D01*
X184942539Y-65020185D01*
G37*
%TD.AperFunction*%
%TD*%
M02*
